%TF.GenerationSoftware,KiCad,Pcbnew,8.0.8*%
%TF.CreationDate,2025-02-03T17:03:24-07:00*%
%TF.ProjectId,Uno_Shield_ThermoPro,556e6f5f-5368-4696-956c-645f54686572,rev?*%
%TF.SameCoordinates,Original*%
%TF.FileFunction,Soldermask,Top*%
%TF.FilePolarity,Negative*%
%FSLAX46Y46*%
G04 Gerber Fmt 4.6, Leading zero omitted, Abs format (unit mm)*
G04 Created by KiCad (PCBNEW 8.0.8) date 2025-02-03 17:03:24*
%MOMM*%
%LPD*%
G01*
G04 APERTURE LIST*
G04 Aperture macros list*
%AMRoundRect*
0 Rectangle with rounded corners*
0 $1 Rounding radius*
0 $2 $3 $4 $5 $6 $7 $8 $9 X,Y pos of 4 corners*
0 Add a 4 corners polygon primitive as box body*
4,1,4,$2,$3,$4,$5,$6,$7,$8,$9,$2,$3,0*
0 Add four circle primitives for the rounded corners*
1,1,$1+$1,$2,$3*
1,1,$1+$1,$4,$5*
1,1,$1+$1,$6,$7*
1,1,$1+$1,$8,$9*
0 Add four rect primitives between the rounded corners*
20,1,$1+$1,$2,$3,$4,$5,0*
20,1,$1+$1,$4,$5,$6,$7,0*
20,1,$1+$1,$6,$7,$8,$9,0*
20,1,$1+$1,$8,$9,$2,$3,0*%
G04 Aperture macros list end*
%ADD10R,1.700000X1.700000*%
%ADD11O,1.700000X1.700000*%
%ADD12C,2.000000*%
%ADD13R,1.800000X1.800000*%
%ADD14C,1.800000*%
%ADD15C,1.600000*%
%ADD16O,1.600000X1.600000*%
%ADD17RoundRect,0.250000X-0.725000X0.600000X-0.725000X-0.600000X0.725000X-0.600000X0.725000X0.600000X0*%
%ADD18O,1.950000X1.700000*%
%ADD19C,1.440000*%
G04 APERTURE END LIST*
D10*
%TO.C,J1*%
X127940000Y-97460000D03*
D11*
X130480000Y-97460000D03*
X133020000Y-97460000D03*
X135560000Y-97460000D03*
X138100000Y-97460000D03*
X140640000Y-97460000D03*
X143180000Y-97460000D03*
X145720000Y-97460000D03*
%TD*%
D10*
%TO.C,J3*%
X150800000Y-97460000D03*
D11*
X153340000Y-97460000D03*
X155880000Y-97460000D03*
X158420000Y-97460000D03*
X160960000Y-97460000D03*
X163500000Y-97460000D03*
%TD*%
D10*
%TO.C,J2*%
X118796000Y-49200000D03*
D11*
X121336000Y-49200000D03*
X123876000Y-49200000D03*
X126416000Y-49200000D03*
X128956000Y-49200000D03*
X131496000Y-49200000D03*
X134036000Y-49200000D03*
X136576000Y-49200000D03*
X139116000Y-49200000D03*
X141656000Y-49200000D03*
%TD*%
D10*
%TO.C,J4*%
X145720000Y-49200000D03*
D11*
X148260000Y-49200000D03*
X150800000Y-49200000D03*
X153340000Y-49200000D03*
X155880000Y-49200000D03*
X158420000Y-49200000D03*
X160960000Y-49200000D03*
X163500000Y-49200000D03*
%TD*%
D12*
%TO.C,SW4*%
X134500000Y-79000000D03*
X141000000Y-79000000D03*
X134500000Y-83500000D03*
X141000000Y-83500000D03*
%TD*%
D13*
%TO.C,D1*%
X164500000Y-66000000D03*
D14*
X164500000Y-63460000D03*
%TD*%
D12*
%TO.C,SW5*%
X134500000Y-87500000D03*
X141000000Y-87500000D03*
X134500000Y-92000000D03*
X141000000Y-92000000D03*
%TD*%
%TO.C,SW2*%
X134500000Y-62000000D03*
X141000000Y-62000000D03*
X134500000Y-66500000D03*
X141000000Y-66500000D03*
%TD*%
D15*
%TO.C,R4*%
X148960000Y-64960000D03*
D16*
X159120000Y-64960000D03*
%TD*%
D15*
%TO.C,R1*%
X159040000Y-52960000D03*
D16*
X148880000Y-52960000D03*
%TD*%
D12*
%TO.C,SW3*%
X134500000Y-70500000D03*
X141000000Y-70500000D03*
X134500000Y-75000000D03*
X141000000Y-75000000D03*
%TD*%
D10*
%TO.C,J6*%
X111550000Y-69010000D03*
D11*
X114090000Y-69010000D03*
X116630000Y-69010000D03*
X119170000Y-69010000D03*
%TD*%
D12*
%TO.C,SW1*%
X134500000Y-53500000D03*
X141000000Y-53500000D03*
X134500000Y-58000000D03*
X141000000Y-58000000D03*
%TD*%
D17*
%TO.C,J7*%
X128500000Y-54000000D03*
D18*
X128500000Y-56500000D03*
X128500000Y-59000000D03*
%TD*%
D15*
%TO.C,R5*%
X148800000Y-69460000D03*
D16*
X158960000Y-69460000D03*
%TD*%
D15*
%TO.C,R2*%
X159040000Y-56960000D03*
D16*
X148880000Y-56960000D03*
%TD*%
D19*
%TO.C,RV1*%
X150960000Y-89460000D03*
X153500000Y-92000000D03*
X156040000Y-89460000D03*
%TD*%
D10*
%TO.C,J5*%
X104630000Y-65180000D03*
D11*
X107170000Y-65180000D03*
X109710000Y-65180000D03*
X112250000Y-65180000D03*
X114790000Y-65180000D03*
X117330000Y-65180000D03*
X119870000Y-65180000D03*
X122410000Y-65180000D03*
%TD*%
D15*
%TO.C,R6*%
X148880000Y-73460000D03*
D16*
X159040000Y-73460000D03*
%TD*%
D15*
%TO.C,R3*%
X148880000Y-60960000D03*
D16*
X159040000Y-60960000D03*
%TD*%
M02*
