%TF.GenerationSoftware,KiCad,Pcbnew,8.0.8*%
%TF.CreationDate,2025-02-03T17:04:21-07:00*%
%TF.ProjectId,Uno_Shield_ThermoPro,556e6f5f-5368-4696-956c-645f54686572,rev?*%
%TF.SameCoordinates,Original*%
%TF.FileFunction,Copper,L1,Top*%
%TF.FilePolarity,Positive*%
%FSLAX46Y46*%
G04 Gerber Fmt 4.6, Leading zero omitted, Abs format (unit mm)*
G04 Created by KiCad (PCBNEW 8.0.8) date 2025-02-03 17:04:21*
%MOMM*%
%LPD*%
G01*
G04 APERTURE LIST*
G04 Aperture macros list*
%AMRoundRect*
0 Rectangle with rounded corners*
0 $1 Rounding radius*
0 $2 $3 $4 $5 $6 $7 $8 $9 X,Y pos of 4 corners*
0 Add a 4 corners polygon primitive as box body*
4,1,4,$2,$3,$4,$5,$6,$7,$8,$9,$2,$3,0*
0 Add four circle primitives for the rounded corners*
1,1,$1+$1,$2,$3*
1,1,$1+$1,$4,$5*
1,1,$1+$1,$6,$7*
1,1,$1+$1,$8,$9*
0 Add four rect primitives between the rounded corners*
20,1,$1+$1,$2,$3,$4,$5,0*
20,1,$1+$1,$4,$5,$6,$7,0*
20,1,$1+$1,$6,$7,$8,$9,0*
20,1,$1+$1,$8,$9,$2,$3,0*%
G04 Aperture macros list end*
%TA.AperFunction,ComponentPad*%
%ADD10R,1.700000X1.700000*%
%TD*%
%TA.AperFunction,ComponentPad*%
%ADD11O,1.700000X1.700000*%
%TD*%
%TA.AperFunction,ComponentPad*%
%ADD12C,2.000000*%
%TD*%
%TA.AperFunction,ComponentPad*%
%ADD13R,1.800000X1.800000*%
%TD*%
%TA.AperFunction,ComponentPad*%
%ADD14C,1.800000*%
%TD*%
%TA.AperFunction,ComponentPad*%
%ADD15C,1.600000*%
%TD*%
%TA.AperFunction,ComponentPad*%
%ADD16O,1.600000X1.600000*%
%TD*%
%TA.AperFunction,ComponentPad*%
%ADD17RoundRect,0.250000X-0.725000X0.600000X-0.725000X-0.600000X0.725000X-0.600000X0.725000X0.600000X0*%
%TD*%
%TA.AperFunction,ComponentPad*%
%ADD18O,1.950000X1.700000*%
%TD*%
%TA.AperFunction,ComponentPad*%
%ADD19C,1.440000*%
%TD*%
%TA.AperFunction,ViaPad*%
%ADD20C,0.600000*%
%TD*%
%TA.AperFunction,Conductor*%
%ADD21C,0.508000*%
%TD*%
G04 APERTURE END LIST*
D10*
%TO.P,J1,1,Pin_1*%
%TO.N,unconnected-(J1-Pin_1-Pad1)*%
X127940000Y-97460000D03*
D11*
%TO.P,J1,2,Pin_2*%
%TO.N,/IOREF*%
X130480000Y-97460000D03*
%TO.P,J1,3,Pin_3*%
%TO.N,/~{RESET}*%
X133020000Y-97460000D03*
%TO.P,J1,4,Pin_4*%
%TO.N,+3V3*%
X135560000Y-97460000D03*
%TO.P,J1,5,Pin_5*%
%TO.N,+5V*%
X138100000Y-97460000D03*
%TO.P,J1,6,Pin_6*%
%TO.N,GND*%
X140640000Y-97460000D03*
%TO.P,J1,7,Pin_7*%
X143180000Y-97460000D03*
%TO.P,J1,8,Pin_8*%
%TO.N,VCC*%
X145720000Y-97460000D03*
%TD*%
D10*
%TO.P,J3,1,Pin_1*%
%TO.N,/temp_sensor*%
X150800000Y-97460000D03*
D11*
%TO.P,J3,2,Pin_2*%
%TO.N,/A1*%
X153340000Y-97460000D03*
%TO.P,J3,3,Pin_3*%
%TO.N,/A2*%
X155880000Y-97460000D03*
%TO.P,J3,4,Pin_4*%
%TO.N,/A3*%
X158420000Y-97460000D03*
%TO.P,J3,5,Pin_5*%
%TO.N,/SDA{slash}A4*%
X160960000Y-97460000D03*
%TO.P,J3,6,Pin_6*%
%TO.N,/SCL{slash}A5*%
X163500000Y-97460000D03*
%TD*%
D10*
%TO.P,J2,1,Pin_1*%
%TO.N,/I2C_SCL*%
X118796000Y-49200000D03*
D11*
%TO.P,J2,2,Pin_2*%
%TO.N,/I2C_SDA*%
X121336000Y-49200000D03*
%TO.P,J2,3,Pin_3*%
%TO.N,/AREF*%
X123876000Y-49200000D03*
%TO.P,J2,4,Pin_4*%
%TO.N,GND*%
X126416000Y-49200000D03*
%TO.P,J2,5,Pin_5*%
%TO.N,/13*%
X128956000Y-49200000D03*
%TO.P,J2,6,Pin_6*%
%TO.N,/12*%
X131496000Y-49200000D03*
%TO.P,J2,7,Pin_7*%
%TO.N,/\u002A11*%
X134036000Y-49200000D03*
%TO.P,J2,8,Pin_8*%
%TO.N,/\u002A10*%
X136576000Y-49200000D03*
%TO.P,J2,9,Pin_9*%
%TO.N,/led_light*%
X139116000Y-49200000D03*
%TO.P,J2,10,Pin_10*%
%TO.N,/8*%
X141656000Y-49200000D03*
%TD*%
D10*
%TO.P,J4,1,Pin_1*%
%TO.N,/7*%
X145720000Y-49200000D03*
D11*
%TO.P,J4,2,Pin_2*%
%TO.N,/button_light*%
X148260000Y-49200000D03*
%TO.P,J4,3,Pin_3*%
%TO.N,/button_cal*%
X150800000Y-49200000D03*
%TO.P,J4,4,Pin_4*%
%TO.N,/button_units*%
X153340000Y-49200000D03*
%TO.P,J4,5,Pin_5*%
%TO.N,/button_lock*%
X155880000Y-49200000D03*
%TO.P,J4,6,Pin_6*%
%TO.N,/button_onoff*%
X158420000Y-49200000D03*
%TO.P,J4,7,Pin_7*%
%TO.N,/TX{slash}1*%
X160960000Y-49200000D03*
%TO.P,J4,8,Pin_8*%
%TO.N,/RX{slash}0*%
X163500000Y-49200000D03*
%TD*%
D12*
%TO.P,SW4,1,A*%
%TO.N,/button_lock*%
X134500000Y-79000000D03*
X141000000Y-79000000D03*
%TO.P,SW4,2,B*%
%TO.N,+5V*%
X134500000Y-83500000D03*
X141000000Y-83500000D03*
%TD*%
D13*
%TO.P,D1,1,K*%
%TO.N,GND*%
X164500000Y-66000000D03*
D14*
%TO.P,D1,2,A*%
%TO.N,Net-(D1-A)*%
X164500000Y-63460000D03*
%TD*%
D12*
%TO.P,SW5,1,A*%
%TO.N,/button_light*%
X134500000Y-87500000D03*
X141000000Y-87500000D03*
%TO.P,SW5,2,B*%
%TO.N,+5V*%
X134500000Y-92000000D03*
X141000000Y-92000000D03*
%TD*%
%TO.P,SW2,1,A*%
%TO.N,/button_units*%
X134500000Y-62000000D03*
X141000000Y-62000000D03*
%TO.P,SW2,2,B*%
%TO.N,+5V*%
X134500000Y-66500000D03*
X141000000Y-66500000D03*
%TD*%
D15*
%TO.P,R4,1*%
%TO.N,/button_cal*%
X148960000Y-64960000D03*
D16*
%TO.P,R4,2*%
%TO.N,GND*%
X159120000Y-64960000D03*
%TD*%
D15*
%TO.P,R1,1*%
%TO.N,/led_light*%
X159040000Y-52960000D03*
D16*
%TO.P,R1,2*%
%TO.N,Net-(D1-A)*%
X148880000Y-52960000D03*
%TD*%
D12*
%TO.P,SW3,1,A*%
%TO.N,/button_cal*%
X134500000Y-70500000D03*
X141000000Y-70500000D03*
%TO.P,SW3,2,B*%
%TO.N,+5V*%
X134500000Y-75000000D03*
X141000000Y-75000000D03*
%TD*%
D10*
%TO.P,J6,1,Pin_1*%
%TO.N,GND*%
X111550000Y-69010000D03*
D11*
%TO.P,J6,2,Pin_2*%
%TO.N,+5V*%
X114090000Y-69010000D03*
%TO.P,J6,3,Pin_3*%
%TO.N,/I2C_SCL*%
X116630000Y-69010000D03*
%TO.P,J6,4,Pin_4*%
%TO.N,/I2C_SDA*%
X119170000Y-69010000D03*
%TD*%
D12*
%TO.P,SW1,1,A*%
%TO.N,/button_onoff*%
X134500000Y-53500000D03*
X141000000Y-53500000D03*
%TO.P,SW1,2,B*%
%TO.N,+5V*%
X134500000Y-58000000D03*
X141000000Y-58000000D03*
%TD*%
D17*
%TO.P,J7,1,Pin_1*%
%TO.N,GND*%
X128500000Y-54000000D03*
D18*
%TO.P,J7,2,Pin_2*%
%TO.N,/8*%
X128500000Y-56500000D03*
%TO.P,J7,3,Pin_3*%
%TO.N,+5V*%
X128500000Y-59000000D03*
%TD*%
D15*
%TO.P,R5,1*%
%TO.N,/button_lock*%
X148800000Y-69460000D03*
D16*
%TO.P,R5,2*%
%TO.N,GND*%
X158960000Y-69460000D03*
%TD*%
D15*
%TO.P,R2,1*%
%TO.N,/button_onoff*%
X159040000Y-56960000D03*
D16*
%TO.P,R2,2*%
%TO.N,GND*%
X148880000Y-56960000D03*
%TD*%
D19*
%TO.P,RV1,1,1*%
%TO.N,+5V*%
X150960000Y-89460000D03*
%TO.P,RV1,2,2*%
%TO.N,/temp_sensor*%
X153500000Y-92000000D03*
%TO.P,RV1,3,3*%
%TO.N,GND*%
X156040000Y-89460000D03*
%TD*%
D10*
%TO.P,J5,1,Pin_1*%
%TO.N,+5V*%
X104630000Y-65180000D03*
D11*
%TO.P,J5,2,Pin_2*%
%TO.N,GND*%
X107170000Y-65180000D03*
%TO.P,J5,3,Pin_3*%
%TO.N,/I2C_SCL*%
X109710000Y-65180000D03*
%TO.P,J5,4,Pin_4*%
%TO.N,/I2C_SDA*%
X112250000Y-65180000D03*
%TO.P,J5,5,Pin_5*%
%TO.N,unconnected-(J5-Pin_5-Pad5)*%
X114790000Y-65180000D03*
%TO.P,J5,6,Pin_6*%
%TO.N,unconnected-(J5-Pin_6-Pad6)*%
X117330000Y-65180000D03*
%TO.P,J5,7,Pin_7*%
%TO.N,unconnected-(J5-Pin_7-Pad7)*%
X119870000Y-65180000D03*
%TO.P,J5,8,Pin_8*%
%TO.N,unconnected-(J5-Pin_8-Pad8)*%
X122410000Y-65180000D03*
%TD*%
D15*
%TO.P,R6,1*%
%TO.N,/button_light*%
X148880000Y-73460000D03*
D16*
%TO.P,R6,2*%
%TO.N,GND*%
X159040000Y-73460000D03*
%TD*%
D15*
%TO.P,R3,1*%
%TO.N,/button_units*%
X148880000Y-60960000D03*
D16*
%TO.P,R3,2*%
%TO.N,GND*%
X159040000Y-60960000D03*
%TD*%
D20*
%TO.N,/button_onoff*%
X152500000Y-55000000D03*
X156634000Y-55000000D03*
%TO.N,/button_light*%
X138894841Y-50894841D03*
X146500000Y-51500000D03*
X140500000Y-51500000D03*
X126500000Y-71068000D03*
X145422841Y-52577159D03*
X126500000Y-69500000D03*
%TO.N,/button_cal*%
X152500000Y-51000000D03*
X154500000Y-51000000D03*
%TO.N,/led_light*%
X164000000Y-51500000D03*
X161500000Y-47035000D03*
%TD*%
D21*
%TO.N,/temp_sensor*%
X153500000Y-93380000D02*
G75*
G02*
X152524189Y-95735804I-3331600J0D01*
G01*
%TO.N,/led_light*%
X141308067Y-47896000D02*
G75*
G03*
X139792055Y-48523972I33J-2144000D01*
G01*
X163270000Y-52230000D02*
G75*
G02*
X161507624Y-52960010I-1762400J1762400D01*
G01*
X143665953Y-47035000D02*
G75*
G03*
X142626662Y-47465527I47J-1469800D01*
G01*
X142626635Y-47465500D02*
G75*
G02*
X141587316Y-47896017I-1039335J1039300D01*
G01*
%TO.N,Net-(D1-A)*%
X164422067Y-48277932D02*
G75*
G03*
X163500000Y-47896000I-922067J-922068D01*
G01*
X146162064Y-52250064D02*
G75*
G03*
X147876000Y-52959991I1713936J1713964D01*
G01*
X164804000Y-62941039D02*
G75*
G02*
X164651988Y-63307988I-519000J39D01*
G01*
X145720000Y-47896000D02*
G75*
G03*
X144416000Y-49200000I0J-1304000D01*
G01*
X164422067Y-48277932D02*
G75*
G02*
X164804000Y-49199999I-922067J-922068D01*
G01*
X144416000Y-49200000D02*
G75*
G03*
X145338074Y-51426060I3148100J0D01*
G01*
%TO.N,/button_cal*%
X142353553Y-70146446D02*
G75*
G02*
X141500000Y-70500001I-853553J853546D01*
G01*
X148250000Y-64960000D02*
G75*
G03*
X147037953Y-65462044I0J-1714100D01*
G01*
X152464644Y-50864644D02*
G75*
G02*
X152500003Y-50950000I-85344J-85356D01*
G01*
X154500000Y-57166036D02*
G75*
G02*
X152906200Y-61013785I-5441600J36D01*
G01*
X141500000Y-70500000D02*
X140500000Y-70500000D01*
%TO.N,/button_units*%
X153340000Y-54246036D02*
G75*
G02*
X151746200Y-58093785I-5441600J36D01*
G01*
X148360000Y-61480000D02*
G75*
G02*
X147104608Y-62000004I-1255400J1255400D01*
G01*
%TO.N,/button_light*%
X147024000Y-97460000D02*
G75*
G02*
X146642067Y-98382067I-1304000J0D01*
G01*
X146690918Y-50769081D02*
G75*
G03*
X146499988Y-51230000I460882J-460919D01*
G01*
X146914213Y-77585786D02*
G75*
G03*
X145499991Y-81000000I3414187J-3414214D01*
G01*
X131241702Y-50894841D02*
G75*
G03*
X127888820Y-52283661I-2J-4741659D01*
G01*
X145500000Y-81000000D02*
G75*
G02*
X144085781Y-84414208I-4828400J0D01*
G01*
X147946067Y-94470067D02*
G75*
G03*
X147024014Y-96696135I2226033J-2226033D01*
G01*
X157344000Y-82818171D02*
G75*
G02*
X155750232Y-86665952I-5441600J-29D01*
G01*
X123500000Y-96606217D02*
G75*
G03*
X124132005Y-98131995I2157800J17D01*
G01*
X125000000Y-89500000D02*
G75*
G03*
X123500008Y-93121320I3621300J-3621300D01*
G01*
X124132000Y-98132000D02*
G75*
G03*
X125657782Y-98764007I1525800J1525800D01*
G01*
X144884261Y-52038579D02*
G75*
G03*
X143584015Y-51499982I-1300261J-1300221D01*
G01*
X126500000Y-85878679D02*
G75*
G02*
X125000006Y-89500006I-5121300J-21D01*
G01*
X127888812Y-52283653D02*
G75*
G03*
X126500029Y-55636543I3352888J-3352847D01*
G01*
X148880000Y-74540000D02*
G75*
G02*
X148116335Y-76383686I-2607400J0D01*
G01*
X155750207Y-77701073D02*
G75*
G02*
X157343964Y-81548829I-3847807J-3847727D01*
G01*
X152438673Y-74389539D02*
G75*
G03*
X150194567Y-73460010I-2244073J-2244061D01*
G01*
X146642067Y-98382067D02*
G75*
G02*
X145720000Y-98764000I-922067J922067D01*
G01*
X126500000Y-57100589D02*
X126500000Y-61786877D01*
%TO.N,/button_lock*%
X155880000Y-60126036D02*
G75*
G02*
X154286200Y-63973785I-5441600J36D01*
G01*
X148800000Y-70330000D02*
G75*
G02*
X148184825Y-71815190I-2100400J0D01*
G01*
%TO.N,/button_onoff*%
X141711000Y-54211000D02*
G75*
G03*
X143427505Y-54921998I1716500J1716500D01*
G01*
X152461000Y-54961000D02*
G75*
G03*
X152366845Y-54921952I-94200J-94100D01*
G01*
X158436315Y-56802315D02*
G75*
G03*
X158817000Y-56959991I380685J380715D01*
G01*
X157527000Y-50093000D02*
G75*
G03*
X156633997Y-52248892I2155900J-2155900D01*
G01*
%TO.N,/I2C_SDA*%
X117736479Y-67576479D02*
G75*
G03*
X115099000Y-66484012I-2637479J-2637521D01*
G01*
X121336000Y-53840036D02*
G75*
G02*
X119742200Y-57687785I-5441600J36D01*
G01*
X112902000Y-65832000D02*
G75*
G03*
X114476067Y-66484014I1574100J1574100D01*
G01*
%TO.N,/I2C_SCL*%
X109847885Y-64652114D02*
G75*
G03*
X109710008Y-64985000I332915J-332886D01*
G01*
X111500000Y-67235000D02*
G75*
G03*
X111765000Y-67500000I265000J0D01*
G01*
X111312616Y-66782616D02*
G75*
G02*
X111499990Y-67235000I-452416J-452384D01*
G01*
X109710000Y-64985000D02*
G75*
G03*
X109847879Y-65317891I470800J0D01*
G01*
X118796000Y-53450036D02*
G75*
G02*
X117202200Y-57297785I-5441600J36D01*
G01*
X115875000Y-68255000D02*
G75*
G03*
X114052268Y-67500013I-1822700J-1822700D01*
G01*
%TO.N,/8*%
X140233000Y-50623000D02*
G75*
G02*
X136797574Y-52045989I-3435400J3435400D01*
G01*
X135207963Y-52046000D02*
G75*
G03*
X131360236Y-53639821I37J-5441500D01*
G01*
%TO.N,+5V*%
X149690000Y-90730000D02*
G75*
G02*
X146623948Y-92000020I-3066100J3066100D01*
G01*
X133773000Y-84227000D02*
G75*
G03*
X133046014Y-85982133I1755100J-1755100D01*
G01*
X114742000Y-69662000D02*
G75*
G03*
X116316067Y-70314014I1574100J1574100D01*
G01*
X134000000Y-58500000D02*
G75*
G02*
X132792893Y-58999997I-1207100J1207100D01*
G01*
X133773000Y-67227000D02*
G75*
G03*
X133046014Y-68982133I1755100J-1755100D01*
G01*
X108695561Y-69245561D02*
G75*
G03*
X111275000Y-70313993I2579439J2579461D01*
G01*
X133773000Y-84227000D02*
G75*
G03*
X133773000Y-82773000I-727000J727000D01*
G01*
X135528133Y-83500000D02*
G75*
G03*
X133772990Y-84226990I-33J-2482100D01*
G01*
X133773000Y-82773000D02*
G75*
G03*
X135528133Y-83499986I1755100J1755100D01*
G01*
X133046000Y-64017866D02*
G75*
G03*
X133772990Y-65773010I2482100J-34D01*
G01*
X133046000Y-81017866D02*
G75*
G03*
X133772990Y-82773010I2482100J-34D01*
G01*
X113438000Y-69662000D02*
G75*
G02*
X111863932Y-70314014I-1574100J1574100D01*
G01*
X134500000Y-92930000D02*
G75*
G03*
X135157613Y-94517605I2245200J0D01*
G01*
X133773000Y-58727000D02*
G75*
G03*
X133046014Y-60482133I1755100J-1755100D01*
G01*
X133773000Y-75727000D02*
G75*
G03*
X133046014Y-77482133I1755100J-1755100D01*
G01*
X134500000Y-92930000D02*
G75*
G03*
X133842386Y-91342394I-2245200J0D01*
G01*
X135430000Y-92000000D02*
G75*
G03*
X134500000Y-92930000I0J-930000D01*
G01*
X133842390Y-91342390D02*
G75*
G03*
X135430000Y-92000005I1587610J1587590D01*
G01*
X134000000Y-58500000D02*
G75*
G02*
X135207106Y-58000003I1207100J-1207100D01*
G01*
X134000000Y-58500000D02*
X134000000Y-58500000D01*
X135207106Y-58000000D02*
G75*
G03*
X133999998Y-58499998I-6J-1707100D01*
G01*
X133773000Y-75727000D02*
G75*
G03*
X133773000Y-74273000I-727000J727000D01*
G01*
X135528133Y-75000000D02*
G75*
G03*
X133772990Y-75726990I-33J-2482100D01*
G01*
X133773000Y-74273000D02*
G75*
G03*
X135528133Y-74999986I1755100J1755100D01*
G01*
X133046000Y-89517866D02*
G75*
G03*
X133772990Y-91273010I2482100J-34D01*
G01*
X132279792Y-68720207D02*
G75*
G02*
X128432036Y-70314010I-3847792J3847807D01*
G01*
X133046000Y-72517866D02*
G75*
G03*
X133772990Y-74273010I2482100J-34D01*
G01*
%TO.N,GND*%
X111550000Y-69010000D02*
X111000000Y-69010000D01*
%TO.N,+5V*%
X133842390Y-91342390D02*
X133773000Y-91273000D01*
X133773000Y-65773000D02*
X134500000Y-66500000D01*
X111275000Y-70314000D02*
X111863932Y-70314000D01*
X135430000Y-92000000D02*
X141000000Y-92000000D01*
X149690000Y-90730000D02*
X150960000Y-89460000D01*
X135528133Y-83500000D02*
X141000000Y-83500000D01*
X133046000Y-64017866D02*
X133046000Y-60482133D01*
X132792893Y-59000000D02*
X128500000Y-59000000D01*
X133773000Y-67227000D02*
X134500000Y-66500000D01*
X134500000Y-66500000D02*
X132279792Y-68720207D01*
X114742000Y-69662000D02*
X114090000Y-69010000D01*
X113438000Y-69662000D02*
X114090000Y-69010000D01*
X116316067Y-70314000D02*
X128432036Y-70314000D01*
X133046000Y-81017866D02*
X133046000Y-77482133D01*
X135528133Y-75000000D02*
X141000000Y-75000000D01*
X133046000Y-85982133D02*
X133046000Y-89517866D01*
X133773000Y-58727000D02*
X134000000Y-58500000D01*
X135157609Y-94517609D02*
X138100000Y-97460000D01*
X146623948Y-92000000D02*
X141000000Y-92000000D01*
X134500000Y-66500000D02*
X141000000Y-66500000D01*
X133046000Y-68982133D02*
X133046000Y-72517866D01*
X135207106Y-58000000D02*
X141000000Y-58000000D01*
X108695561Y-69245561D02*
X104630000Y-65180000D01*
%TO.N,/8*%
X136797574Y-52046000D02*
X135207963Y-52046000D01*
X131360207Y-53639792D02*
X128500000Y-56500000D01*
X140233000Y-50623000D02*
X141656000Y-49200000D01*
%TO.N,/I2C_SCL*%
X109847885Y-64652114D02*
X117202207Y-57297792D01*
X111765000Y-67500000D02*
X114052268Y-67500000D01*
X111312616Y-66782616D02*
X109847885Y-65317885D01*
X118796000Y-53450036D02*
X118796000Y-49200000D01*
X115875000Y-68255000D02*
X116630000Y-69010000D01*
%TO.N,/I2C_SDA*%
X115099000Y-66484000D02*
X114476067Y-66484000D01*
X112902000Y-65832000D02*
X112250000Y-65180000D01*
X117736479Y-67576479D02*
X119170000Y-69010000D01*
X119742207Y-57687792D02*
X112250000Y-65180000D01*
X121336000Y-53840036D02*
X121336000Y-49200000D01*
%TO.N,/button_onoff*%
X141711000Y-54211000D02*
X141000000Y-53500000D01*
X156634000Y-55000000D02*
X156634000Y-52248892D01*
X157527000Y-50093000D02*
X158420000Y-49200000D01*
X158817000Y-56960000D02*
X159040000Y-56960000D01*
X156634000Y-55000000D02*
X158436315Y-56802315D01*
X141000000Y-53500000D02*
X134500000Y-53500000D01*
X143427505Y-54922000D02*
X152366845Y-54922000D01*
X152461000Y-54961000D02*
X152500000Y-55000000D01*
%TO.N,/button_lock*%
X155880000Y-60126036D02*
X155880000Y-49200000D01*
X141000000Y-79000000D02*
X148184817Y-71815182D01*
X141000000Y-79000000D02*
X134500000Y-79000000D01*
X148800000Y-69460000D02*
X154286207Y-63973792D01*
X148800000Y-69460000D02*
X148800000Y-70330000D01*
%TO.N,/button_light*%
X123500000Y-96606217D02*
X123500000Y-93121320D01*
X147946067Y-94470067D02*
X155750207Y-86665927D01*
X144085786Y-84414213D02*
X141000000Y-87500000D01*
X125657782Y-98764000D02*
X145720000Y-98764000D01*
X126500000Y-71068000D02*
X126500000Y-85878679D01*
X126500000Y-55636543D02*
X126500000Y-57100589D01*
X126500000Y-69500000D02*
X126500000Y-61786877D01*
X146914213Y-77585786D02*
X148116324Y-76383675D01*
X146690918Y-50769081D02*
X148260000Y-49200000D01*
X146500000Y-51230000D02*
X146500000Y-51500000D01*
X141000000Y-87500000D02*
X134500000Y-87500000D01*
X131241702Y-50894841D02*
X138894841Y-50894841D01*
X148880000Y-74540000D02*
X148880000Y-73460000D01*
X145422841Y-52577159D02*
X144884261Y-52038579D01*
X157344000Y-82818171D02*
X157344000Y-81548829D01*
X150194567Y-73460000D02*
X148880000Y-73460000D01*
X155750207Y-77701073D02*
X152438673Y-74389539D01*
X143584015Y-51500000D02*
X140500000Y-51500000D01*
X147024000Y-97460000D02*
X147024000Y-96696135D01*
%TO.N,/button_units*%
X148360000Y-61480000D02*
X148880000Y-60960000D01*
X153340000Y-54246036D02*
X153340000Y-49200000D01*
X141000000Y-62000000D02*
X147104608Y-62000000D01*
X141000000Y-62000000D02*
X134500000Y-62000000D01*
X151746207Y-58093792D02*
X148880000Y-60960000D01*
%TO.N,/button_cal*%
X154500000Y-51000000D02*
X154500000Y-57166036D01*
X140500000Y-70500000D02*
X134500000Y-70500000D01*
X152464644Y-50864644D02*
X150800000Y-49200000D01*
X142353553Y-70146446D02*
X147037954Y-65462045D01*
X148250000Y-64960000D02*
X148960000Y-64960000D01*
X148960000Y-64960000D02*
X152906207Y-61013792D01*
X152500000Y-51000000D02*
X152500000Y-50950000D01*
%TO.N,Net-(D1-A)*%
X164652000Y-63308000D02*
X164500000Y-63460000D01*
X146162064Y-52250064D02*
X145338067Y-51426067D01*
X147876000Y-52960000D02*
X148880000Y-52960000D01*
X163500000Y-47896000D02*
X145720000Y-47896000D01*
X164804000Y-62941039D02*
X164804000Y-49199999D01*
%TO.N,/led_light*%
X161507624Y-52960000D02*
X159040000Y-52960000D01*
X164000000Y-51500000D02*
X163270000Y-52230000D01*
X161500000Y-47035000D02*
X143665953Y-47035000D01*
X139792041Y-48523958D02*
X139116000Y-49200000D01*
X141308067Y-47896000D02*
X141587316Y-47896000D01*
%TO.N,/temp_sensor*%
X153500000Y-93380000D02*
X153500000Y-92000000D01*
X152524192Y-95735807D02*
X150800000Y-97460000D01*
%TD*%
M02*
