M48
; DRILL file {KiCad 8.0.8} date 2025-02-04T07:00:31-0700
; FORMAT={-:-/ absolute / inch / decimal}
; #@! TF.CreationDate,2025-02-04T07:00:31-07:00
; #@! TF.GenerationSoftware,Kicad,Pcbnew,8.0.8
; #@! TF.FileFunction,Plated,1,2,PTH
FMAT,2
INCH
; #@! TA.AperFunction,Plated,PTH,ViaDrill
T1C0.0157
; #@! TA.AperFunction,Plated,PTH,ComponentDrill
T2C0.0315
; #@! TA.AperFunction,Plated,PTH,ComponentDrill
T3C0.0354
; #@! TA.AperFunction,Plated,PTH,ComponentDrill
T4C0.0374
; #@! TA.AperFunction,Plated,PTH,ComponentDrill
T5C0.0394
; #@! TA.AperFunction,Plated,PTH,ComponentDrill
T6C0.0433
%
G90
G05
T1
X4.9803Y-2.7362
X4.9803Y-2.798
X5.3937Y-2.0276
X5.5315Y-2.0276
X5.7253Y-2.07
X5.7677Y-2.0276
X6.0039Y-2.0079
X6.0039Y-2.1654
X6.0827Y-2.0079
X6.1667Y-2.1654
X6.3583Y-1.8518
X6.4567Y-2.0276
T2
X5.8583Y-2.7346
X5.8614Y-2.085
X5.8614Y-2.2425
X5.8614Y-2.4
X5.8614Y-2.8921
X5.8646Y-2.5575
X5.9433Y-3.522
X6.0433Y-3.622
X6.1433Y-3.522
X6.2583Y-2.7346
X6.2614Y-2.085
X6.2614Y-2.2425
X6.2614Y-2.4
X6.2614Y-2.8921
X6.2646Y-2.5575
T3
X6.4764Y-2.4984
X6.4764Y-2.5984
T4
X5.0591Y-2.126
X5.0591Y-2.2244
X5.0591Y-2.3228
T5
X4.1193Y-2.5661
X4.2193Y-2.5661
X4.3193Y-2.5661
X4.3917Y-2.7169
X4.4193Y-2.5661
X4.4917Y-2.7169
X4.5193Y-2.5661
X4.5917Y-2.7169
X4.6193Y-2.5661
X4.677Y-1.937
X4.6917Y-2.7169
X4.7193Y-2.5661
X4.777Y-1.937
X4.8193Y-2.5661
X4.877Y-1.937
X4.977Y-1.937
X5.037Y-3.837
X5.077Y-1.937
X5.137Y-3.837
X5.177Y-1.937
X5.237Y-3.837
X5.277Y-1.937
X5.337Y-3.837
X5.377Y-1.937
X5.437Y-3.837
X5.477Y-1.937
X5.537Y-3.837
X5.577Y-1.937
X5.637Y-3.837
X5.737Y-1.937
X5.737Y-3.837
X5.837Y-1.937
X5.937Y-1.937
X5.937Y-3.837
X6.037Y-1.937
X6.037Y-3.837
X6.137Y-1.937
X6.137Y-3.837
X6.237Y-1.937
X6.237Y-3.837
X6.337Y-1.937
X6.337Y-3.837
X6.437Y-1.937
X6.437Y-3.837
T6
X5.2953Y-2.1063
X5.2953Y-2.2835
X5.2953Y-2.4409
X5.2953Y-2.6181
X5.2953Y-2.7756
X5.2953Y-2.9528
X5.2953Y-3.1102
X5.2953Y-3.2874
X5.2953Y-3.4449
X5.2953Y-3.622
X5.5512Y-2.1063
X5.5512Y-2.2835
X5.5512Y-2.4409
X5.5512Y-2.6181
X5.5512Y-2.7756
X5.5512Y-2.9528
X5.5512Y-3.1102
X5.5512Y-3.2874
X5.5512Y-3.4449
X5.5512Y-3.622
M30
