%TF.GenerationSoftware,KiCad,Pcbnew,8.0.8*%
%TF.CreationDate,2025-01-31T10:38:08-07:00*%
%TF.ProjectId,Uno_Shield_ThermoPro,556e6f5f-5368-4696-956c-645f54686572,rev?*%
%TF.SameCoordinates,Original*%
%TF.FileFunction,Copper,L1,Top*%
%TF.FilePolarity,Positive*%
%FSLAX46Y46*%
G04 Gerber Fmt 4.6, Leading zero omitted, Abs format (unit mm)*
G04 Created by KiCad (PCBNEW 8.0.8) date 2025-01-31 10:38:08*
%MOMM*%
%LPD*%
G01*
G04 APERTURE LIST*
G04 Aperture macros list*
%AMRoundRect*
0 Rectangle with rounded corners*
0 $1 Rounding radius*
0 $2 $3 $4 $5 $6 $7 $8 $9 X,Y pos of 4 corners*
0 Add a 4 corners polygon primitive as box body*
4,1,4,$2,$3,$4,$5,$6,$7,$8,$9,$2,$3,0*
0 Add four circle primitives for the rounded corners*
1,1,$1+$1,$2,$3*
1,1,$1+$1,$4,$5*
1,1,$1+$1,$6,$7*
1,1,$1+$1,$8,$9*
0 Add four rect primitives between the rounded corners*
20,1,$1+$1,$2,$3,$4,$5,0*
20,1,$1+$1,$4,$5,$6,$7,0*
20,1,$1+$1,$6,$7,$8,$9,0*
20,1,$1+$1,$8,$9,$2,$3,0*%
G04 Aperture macros list end*
%TA.AperFunction,ComponentPad*%
%ADD10C,1.600000*%
%TD*%
%TA.AperFunction,ComponentPad*%
%ADD11O,1.600000X1.600000*%
%TD*%
%TA.AperFunction,ComponentPad*%
%ADD12RoundRect,0.250000X-0.725000X0.600000X-0.725000X-0.600000X0.725000X-0.600000X0.725000X0.600000X0*%
%TD*%
%TA.AperFunction,ComponentPad*%
%ADD13O,1.950000X1.700000*%
%TD*%
%TA.AperFunction,ComponentPad*%
%ADD14R,1.700000X1.700000*%
%TD*%
%TA.AperFunction,ComponentPad*%
%ADD15O,1.700000X1.700000*%
%TD*%
%TA.AperFunction,ComponentPad*%
%ADD16C,2.000000*%
%TD*%
%TA.AperFunction,ComponentPad*%
%ADD17R,1.800000X1.800000*%
%TD*%
%TA.AperFunction,ComponentPad*%
%ADD18C,1.800000*%
%TD*%
%TA.AperFunction,ComponentPad*%
%ADD19C,1.440000*%
%TD*%
%TA.AperFunction,ViaPad*%
%ADD20C,0.600000*%
%TD*%
%TA.AperFunction,Conductor*%
%ADD21C,0.508000*%
%TD*%
G04 APERTURE END LIST*
D10*
%TO.P,R6,1*%
%TO.N,/button_light*%
X148880000Y-73460000D03*
D11*
%TO.P,R6,2*%
%TO.N,GND*%
X159040000Y-73460000D03*
%TD*%
%TO.P,R5,2*%
%TO.N,GND*%
X158960000Y-69460000D03*
D10*
%TO.P,R5,1*%
%TO.N,/button_lock*%
X148800000Y-69460000D03*
%TD*%
%TO.P,R4,1*%
%TO.N,/button_cal*%
X148960000Y-64960000D03*
D11*
%TO.P,R4,2*%
%TO.N,GND*%
X159120000Y-64960000D03*
%TD*%
D10*
%TO.P,R3,1*%
%TO.N,/button_units*%
X148880000Y-60960000D03*
D11*
%TO.P,R3,2*%
%TO.N,GND*%
X159040000Y-60960000D03*
%TD*%
D10*
%TO.P,R2,1*%
%TO.N,/button_onoff*%
X159040000Y-56960000D03*
D11*
%TO.P,R2,2*%
%TO.N,GND*%
X148880000Y-56960000D03*
%TD*%
%TO.P,R1,2*%
%TO.N,Net-(D1-A)*%
X148880000Y-52960000D03*
D10*
%TO.P,R1,1*%
%TO.N,/led_light*%
X159040000Y-52960000D03*
%TD*%
D12*
%TO.P,J7,1,Pin_1*%
%TO.N,GND*%
X128500000Y-54000000D03*
D13*
%TO.P,J7,2,Pin_2*%
%TO.N,/8*%
X128500000Y-56500000D03*
%TO.P,J7,3,Pin_3*%
%TO.N,+5V*%
X128500000Y-59000000D03*
%TD*%
D14*
%TO.P,J1,1,Pin_1*%
%TO.N,unconnected-(J1-Pin_1-Pad1)*%
X127940000Y-97460000D03*
D15*
%TO.P,J1,2,Pin_2*%
%TO.N,/IOREF*%
X130480000Y-97460000D03*
%TO.P,J1,3,Pin_3*%
%TO.N,/~{RESET}*%
X133020000Y-97460000D03*
%TO.P,J1,4,Pin_4*%
%TO.N,+3V3*%
X135560000Y-97460000D03*
%TO.P,J1,5,Pin_5*%
%TO.N,+5V*%
X138100000Y-97460000D03*
%TO.P,J1,6,Pin_6*%
%TO.N,GND*%
X140640000Y-97460000D03*
%TO.P,J1,7,Pin_7*%
X143180000Y-97460000D03*
%TO.P,J1,8,Pin_8*%
%TO.N,VCC*%
X145720000Y-97460000D03*
%TD*%
D14*
%TO.P,J3,1,Pin_1*%
%TO.N,/temp_sensor*%
X150800000Y-97460000D03*
D15*
%TO.P,J3,2,Pin_2*%
%TO.N,/A1*%
X153340000Y-97460000D03*
%TO.P,J3,3,Pin_3*%
%TO.N,/A2*%
X155880000Y-97460000D03*
%TO.P,J3,4,Pin_4*%
%TO.N,/A3*%
X158420000Y-97460000D03*
%TO.P,J3,5,Pin_5*%
%TO.N,/SDA{slash}A4*%
X160960000Y-97460000D03*
%TO.P,J3,6,Pin_6*%
%TO.N,/SCL{slash}A5*%
X163500000Y-97460000D03*
%TD*%
D14*
%TO.P,J2,1,Pin_1*%
%TO.N,/I2C_SCL*%
X118796000Y-49200000D03*
D15*
%TO.P,J2,2,Pin_2*%
%TO.N,/I2C_SDA*%
X121336000Y-49200000D03*
%TO.P,J2,3,Pin_3*%
%TO.N,/AREF*%
X123876000Y-49200000D03*
%TO.P,J2,4,Pin_4*%
%TO.N,GND*%
X126416000Y-49200000D03*
%TO.P,J2,5,Pin_5*%
%TO.N,/13*%
X128956000Y-49200000D03*
%TO.P,J2,6,Pin_6*%
%TO.N,/12*%
X131496000Y-49200000D03*
%TO.P,J2,7,Pin_7*%
%TO.N,/\u002A11*%
X134036000Y-49200000D03*
%TO.P,J2,8,Pin_8*%
%TO.N,/\u002A10*%
X136576000Y-49200000D03*
%TO.P,J2,9,Pin_9*%
%TO.N,/led_light*%
X139116000Y-49200000D03*
%TO.P,J2,10,Pin_10*%
%TO.N,/8*%
X141656000Y-49200000D03*
%TD*%
D14*
%TO.P,J4,1,Pin_1*%
%TO.N,/7*%
X145720000Y-49200000D03*
D15*
%TO.P,J4,2,Pin_2*%
%TO.N,/button_light*%
X148260000Y-49200000D03*
%TO.P,J4,3,Pin_3*%
%TO.N,/button_cal*%
X150800000Y-49200000D03*
%TO.P,J4,4,Pin_4*%
%TO.N,/button_units*%
X153340000Y-49200000D03*
%TO.P,J4,5,Pin_5*%
%TO.N,/button_lock*%
X155880000Y-49200000D03*
%TO.P,J4,6,Pin_6*%
%TO.N,/button_onoff*%
X158420000Y-49200000D03*
%TO.P,J4,7,Pin_7*%
%TO.N,/TX{slash}1*%
X160960000Y-49200000D03*
%TO.P,J4,8,Pin_8*%
%TO.N,/RX{slash}0*%
X163500000Y-49200000D03*
%TD*%
D16*
%TO.P,SW4,2,B*%
%TO.N,+5V*%
X141000000Y-83500000D03*
X134500000Y-83500000D03*
%TO.P,SW4,1,A*%
%TO.N,/button_lock*%
X141000000Y-79000000D03*
X134500000Y-79000000D03*
%TD*%
D17*
%TO.P,D1,1,K*%
%TO.N,GND*%
X164500000Y-66000000D03*
D18*
%TO.P,D1,2,A*%
%TO.N,Net-(D1-A)*%
X164500000Y-63460000D03*
%TD*%
D16*
%TO.P,SW5,2,B*%
%TO.N,+5V*%
X141000000Y-92000000D03*
X134500000Y-92000000D03*
%TO.P,SW5,1,A*%
%TO.N,/button_light*%
X141000000Y-87500000D03*
X134500000Y-87500000D03*
%TD*%
%TO.P,SW2,2,B*%
%TO.N,+5V*%
X141000000Y-66500000D03*
X134500000Y-66500000D03*
%TO.P,SW2,1,A*%
%TO.N,/button_units*%
X141000000Y-62000000D03*
X134500000Y-62000000D03*
%TD*%
%TO.P,SW3,2,B*%
%TO.N,+5V*%
X141000000Y-75000000D03*
X134500000Y-75000000D03*
%TO.P,SW3,1,A*%
%TO.N,/button_cal*%
X141000000Y-70500000D03*
X134500000Y-70500000D03*
%TD*%
D15*
%TO.P,J6,4,Pin_4*%
%TO.N,/I2C_SDA*%
X119170000Y-69010000D03*
%TO.P,J6,3,Pin_3*%
%TO.N,/I2C_SCL*%
X116630000Y-69010000D03*
%TO.P,J6,2,Pin_2*%
%TO.N,+5V*%
X114090000Y-69010000D03*
D14*
%TO.P,J6,1,Pin_1*%
%TO.N,GND*%
X111550000Y-69010000D03*
%TD*%
D16*
%TO.P,SW1,2,B*%
%TO.N,+5V*%
X141000000Y-58000000D03*
X134500000Y-58000000D03*
%TO.P,SW1,1,A*%
%TO.N,/button_onoff*%
X141000000Y-53500000D03*
X134500000Y-53500000D03*
%TD*%
D19*
%TO.P,RV1,3,3*%
%TO.N,GND*%
X156040000Y-89460000D03*
%TO.P,RV1,2,2*%
%TO.N,/temp_sensor*%
X153500000Y-92000000D03*
%TO.P,RV1,1,1*%
%TO.N,+5V*%
X150960000Y-89460000D03*
%TD*%
D15*
%TO.P,J5,8,Pin_8*%
%TO.N,unconnected-(J5-Pin_8-Pad8)*%
X122410000Y-65180000D03*
%TO.P,J5,7,Pin_7*%
%TO.N,unconnected-(J5-Pin_7-Pad7)*%
X119870000Y-65180000D03*
%TO.P,J5,6,Pin_6*%
%TO.N,unconnected-(J5-Pin_6-Pad6)*%
X117330000Y-65180000D03*
%TO.P,J5,5,Pin_5*%
%TO.N,unconnected-(J5-Pin_5-Pad5)*%
X114790000Y-65180000D03*
%TO.P,J5,4,Pin_4*%
%TO.N,/I2C_SDA*%
X112250000Y-65180000D03*
%TO.P,J5,3,Pin_3*%
%TO.N,/I2C_SCL*%
X109710000Y-65180000D03*
%TO.P,J5,2,Pin_2*%
%TO.N,GND*%
X107170000Y-65180000D03*
D14*
%TO.P,J5,1,Pin_1*%
%TO.N,+5V*%
X104630000Y-65180000D03*
%TD*%
D20*
%TO.N,/led_light*%
X164000000Y-51500000D03*
X161500000Y-47035000D03*
%TO.N,/button_light*%
X145422841Y-52577159D03*
X140500000Y-51500000D03*
X138894841Y-50894841D03*
X146500000Y-51500000D03*
%TO.N,/button_onoff*%
X152500000Y-55000000D03*
X156634000Y-55000000D03*
%TO.N,/button_light*%
X126500000Y-69500000D03*
X126500000Y-71068000D03*
%TO.N,/button_cal*%
X152500000Y-51000000D03*
X154500000Y-51000000D03*
%TD*%
D21*
%TO.N,/led_light*%
X162540000Y-52960000D02*
X159040000Y-52960000D01*
X164000000Y-51500000D02*
X162540000Y-52960000D01*
X143057135Y-47035000D02*
X161500000Y-47035000D01*
X142196135Y-47896000D02*
X143057135Y-47035000D01*
X140420000Y-47896000D02*
X142196135Y-47896000D01*
X139116000Y-49200000D02*
X140420000Y-47896000D01*
%TO.N,/button_light*%
X146500000Y-50960000D02*
X148260000Y-49200000D01*
X146500000Y-51500000D02*
X146500000Y-50960000D01*
X144345682Y-51500000D02*
X145422841Y-52577159D01*
X140500000Y-51500000D02*
X144345682Y-51500000D01*
X129277625Y-50894841D02*
X138894841Y-50894841D01*
X126500000Y-53672466D02*
X129277625Y-50894841D01*
X126500000Y-59443733D02*
X126500000Y-53672466D01*
%TO.N,/8*%
X138810000Y-52046000D02*
X141656000Y-49200000D01*
X132954000Y-52046000D02*
X138810000Y-52046000D01*
X128500000Y-56500000D02*
X132954000Y-52046000D01*
%TO.N,+5V*%
X133500000Y-59000000D02*
X134500000Y-58000000D01*
X128500000Y-59000000D02*
X133500000Y-59000000D01*
%TO.N,/button_onoff*%
X158594000Y-56960000D02*
X156634000Y-55000000D01*
X159040000Y-56960000D02*
X158594000Y-56960000D01*
X156634000Y-50986000D02*
X158420000Y-49200000D01*
X156634000Y-55000000D02*
X156634000Y-50986000D01*
X152422000Y-54922000D02*
X152500000Y-55000000D01*
X142422000Y-54922000D02*
X152422000Y-54922000D01*
X141000000Y-53500000D02*
X142422000Y-54922000D01*
%TO.N,/button_light*%
X126636000Y-98764000D02*
X126500000Y-98628000D01*
X157344000Y-85072135D02*
X147024000Y-95392135D01*
X157344000Y-79294866D02*
X157344000Y-85072135D01*
X151509134Y-73460000D02*
X157344000Y-79294866D01*
X126500000Y-98628000D02*
X126500000Y-71068000D01*
X147024000Y-98000135D02*
X146260135Y-98764000D01*
X147024000Y-95392135D02*
X147024000Y-98000135D01*
X148880000Y-73460000D02*
X151509134Y-73460000D01*
X146260135Y-98764000D02*
X126636000Y-98764000D01*
%TO.N,Net-(D1-A)*%
X164804000Y-63156000D02*
X164500000Y-63460000D01*
X164040135Y-47896000D02*
X164804000Y-48659865D01*
X164804000Y-48659865D02*
X164804000Y-63156000D01*
X146872000Y-52960000D02*
X144416000Y-50504000D01*
X144416000Y-50504000D02*
X144416000Y-47896000D01*
X144416000Y-47896000D02*
X164040135Y-47896000D01*
X148880000Y-52960000D02*
X146872000Y-52960000D01*
%TO.N,/button_cal*%
X152500000Y-51000000D02*
X152500000Y-50900000D01*
X152500000Y-50900000D02*
X150800000Y-49200000D01*
X154500000Y-59420000D02*
X154500000Y-51000000D01*
X148960000Y-64960000D02*
X154500000Y-59420000D01*
%TO.N,/button_units*%
X153340000Y-56500000D02*
X153340000Y-49200000D01*
X148880000Y-60960000D02*
X153340000Y-56500000D01*
%TO.N,/button_lock*%
X155880000Y-62380000D02*
X155880000Y-49200000D01*
X148800000Y-69460000D02*
X155880000Y-62380000D01*
%TO.N,/I2C_SDA*%
X121336000Y-56094000D02*
X121336000Y-49200000D01*
X112250000Y-65180000D02*
X121336000Y-56094000D01*
%TO.N,/I2C_SCL*%
X109710000Y-64790000D02*
X118796000Y-55704000D01*
X118796000Y-55704000D02*
X118796000Y-49200000D01*
X109710000Y-65180000D02*
X109710000Y-64790000D01*
%TO.N,/button_light*%
X145500000Y-79000000D02*
X148880000Y-75620000D01*
X145500000Y-83000000D02*
X145500000Y-79000000D01*
X141000000Y-87500000D02*
X145500000Y-83000000D01*
X148880000Y-75620000D02*
X148880000Y-73460000D01*
%TO.N,/button_lock*%
X148800000Y-71200000D02*
X148800000Y-69460000D01*
X141000000Y-79000000D02*
X148800000Y-71200000D01*
%TO.N,/button_cal*%
X147540000Y-64960000D02*
X148960000Y-64960000D01*
X142000000Y-70500000D02*
X147540000Y-64960000D01*
X141000000Y-70500000D02*
X142000000Y-70500000D01*
%TO.N,/button_units*%
X147840000Y-62000000D02*
X148880000Y-60960000D01*
X141000000Y-62000000D02*
X147840000Y-62000000D01*
%TO.N,/temp_sensor*%
X153500000Y-94760000D02*
X150800000Y-97460000D01*
X153500000Y-92000000D02*
X153500000Y-94760000D01*
%TO.N,+5V*%
X141000000Y-92000000D02*
X148420000Y-92000000D01*
X148420000Y-92000000D02*
X150960000Y-89460000D01*
X134500000Y-93860000D02*
X138100000Y-97460000D01*
X134500000Y-92000000D02*
X134500000Y-93860000D01*
%TO.N,/button_light*%
X134500000Y-87500000D02*
X141000000Y-87500000D01*
%TO.N,/button_lock*%
X134500000Y-79000000D02*
X141000000Y-79000000D01*
%TO.N,/button_cal*%
X134500000Y-70500000D02*
X141000000Y-70500000D01*
%TO.N,/button_units*%
X134500000Y-62000000D02*
X141000000Y-62000000D01*
%TO.N,/button_onoff*%
X134500000Y-53500000D02*
X141000000Y-53500000D01*
%TO.N,+5V*%
X141000000Y-58000000D02*
X134500000Y-58000000D01*
X141000000Y-66500000D02*
X134500000Y-66500000D01*
X141000000Y-75000000D02*
X134500000Y-75000000D01*
X141000000Y-92000000D02*
X134500000Y-92000000D01*
X141000000Y-83500000D02*
X134500000Y-83500000D01*
X133046000Y-84954000D02*
X134500000Y-83500000D01*
X133046000Y-90546000D02*
X133046000Y-84954000D01*
X134500000Y-92000000D02*
X133046000Y-90546000D01*
X133046000Y-76454000D02*
X134500000Y-75000000D01*
X133046000Y-82046000D02*
X133046000Y-76454000D01*
X134500000Y-83500000D02*
X133046000Y-82046000D01*
X133046000Y-67954000D02*
X134500000Y-66500000D01*
X133046000Y-73546000D02*
X133046000Y-67954000D01*
X134500000Y-75000000D02*
X133046000Y-73546000D01*
X133046000Y-65046000D02*
X134500000Y-66500000D01*
X133046000Y-59454000D02*
X133046000Y-65046000D01*
X134500000Y-58000000D02*
X133046000Y-59454000D01*
X115394000Y-70314000D02*
X130686000Y-70314000D01*
X130686000Y-70314000D02*
X134500000Y-66500000D01*
X114090000Y-69010000D02*
X115394000Y-70314000D01*
%TO.N,/I2C_SDA*%
X116644000Y-66484000D02*
X119170000Y-69010000D01*
X113554000Y-66484000D02*
X116644000Y-66484000D01*
X112250000Y-65180000D02*
X113554000Y-66484000D01*
%TO.N,/I2C_SCL*%
X111500000Y-67500000D02*
X115120000Y-67500000D01*
X111500000Y-66970000D02*
X111500000Y-67500000D01*
X115120000Y-67500000D02*
X116630000Y-69010000D01*
X109710000Y-65180000D02*
X111500000Y-66970000D01*
%TO.N,+5V*%
X112786000Y-70314000D02*
X114090000Y-69010000D01*
X109764000Y-70314000D02*
X112786000Y-70314000D01*
X104630000Y-65180000D02*
X109764000Y-70314000D01*
%TO.N,GND*%
X111550000Y-69010000D02*
X111000000Y-69010000D01*
%TO.N,/button_light*%
X126500000Y-69500000D02*
X126500000Y-59443733D01*
%TD*%
M02*
