%TF.GenerationSoftware,KiCad,Pcbnew,8.0.8*%
%TF.CreationDate,2025-01-31T10:38:08-07:00*%
%TF.ProjectId,Uno_Shield_ThermoPro,556e6f5f-5368-4696-956c-645f54686572,rev?*%
%TF.SameCoordinates,Original*%
%TF.FileFunction,Legend,Top*%
%TF.FilePolarity,Positive*%
%FSLAX46Y46*%
G04 Gerber Fmt 4.6, Leading zero omitted, Abs format (unit mm)*
G04 Created by KiCad (PCBNEW 8.0.8) date 2025-01-31 10:38:08*
%MOMM*%
%LPD*%
G01*
G04 APERTURE LIST*
%ADD10C,0.150000*%
%ADD11C,0.100000*%
%ADD12C,0.120000*%
G04 APERTURE END LIST*
D10*
X123500000Y-51300000D02*
X102500000Y-51300000D01*
X102500000Y-66300000D01*
X123500000Y-66300000D01*
X123500000Y-51300000D01*
D11*
X101700000Y-95300000D02*
X129000000Y-95300000D01*
X129000000Y-67500000D01*
X101700000Y-67500000D01*
X101700000Y-95300000D01*
D10*
X154213333Y-73914819D02*
X153880000Y-73438628D01*
X153641905Y-73914819D02*
X153641905Y-72914819D01*
X153641905Y-72914819D02*
X154022857Y-72914819D01*
X154022857Y-72914819D02*
X154118095Y-72962438D01*
X154118095Y-72962438D02*
X154165714Y-73010057D01*
X154165714Y-73010057D02*
X154213333Y-73105295D01*
X154213333Y-73105295D02*
X154213333Y-73248152D01*
X154213333Y-73248152D02*
X154165714Y-73343390D01*
X154165714Y-73343390D02*
X154118095Y-73391009D01*
X154118095Y-73391009D02*
X154022857Y-73438628D01*
X154022857Y-73438628D02*
X153641905Y-73438628D01*
X155070476Y-72914819D02*
X154880000Y-72914819D01*
X154880000Y-72914819D02*
X154784762Y-72962438D01*
X154784762Y-72962438D02*
X154737143Y-73010057D01*
X154737143Y-73010057D02*
X154641905Y-73152914D01*
X154641905Y-73152914D02*
X154594286Y-73343390D01*
X154594286Y-73343390D02*
X154594286Y-73724342D01*
X154594286Y-73724342D02*
X154641905Y-73819580D01*
X154641905Y-73819580D02*
X154689524Y-73867200D01*
X154689524Y-73867200D02*
X154784762Y-73914819D01*
X154784762Y-73914819D02*
X154975238Y-73914819D01*
X154975238Y-73914819D02*
X155070476Y-73867200D01*
X155070476Y-73867200D02*
X155118095Y-73819580D01*
X155118095Y-73819580D02*
X155165714Y-73724342D01*
X155165714Y-73724342D02*
X155165714Y-73486247D01*
X155165714Y-73486247D02*
X155118095Y-73391009D01*
X155118095Y-73391009D02*
X155070476Y-73343390D01*
X155070476Y-73343390D02*
X154975238Y-73295771D01*
X154975238Y-73295771D02*
X154784762Y-73295771D01*
X154784762Y-73295771D02*
X154689524Y-73343390D01*
X154689524Y-73343390D02*
X154641905Y-73391009D01*
X154641905Y-73391009D02*
X154594286Y-73486247D01*
X154133333Y-69914819D02*
X153800000Y-69438628D01*
X153561905Y-69914819D02*
X153561905Y-68914819D01*
X153561905Y-68914819D02*
X153942857Y-68914819D01*
X153942857Y-68914819D02*
X154038095Y-68962438D01*
X154038095Y-68962438D02*
X154085714Y-69010057D01*
X154085714Y-69010057D02*
X154133333Y-69105295D01*
X154133333Y-69105295D02*
X154133333Y-69248152D01*
X154133333Y-69248152D02*
X154085714Y-69343390D01*
X154085714Y-69343390D02*
X154038095Y-69391009D01*
X154038095Y-69391009D02*
X153942857Y-69438628D01*
X153942857Y-69438628D02*
X153561905Y-69438628D01*
X155038095Y-68914819D02*
X154561905Y-68914819D01*
X154561905Y-68914819D02*
X154514286Y-69391009D01*
X154514286Y-69391009D02*
X154561905Y-69343390D01*
X154561905Y-69343390D02*
X154657143Y-69295771D01*
X154657143Y-69295771D02*
X154895238Y-69295771D01*
X154895238Y-69295771D02*
X154990476Y-69343390D01*
X154990476Y-69343390D02*
X155038095Y-69391009D01*
X155038095Y-69391009D02*
X155085714Y-69486247D01*
X155085714Y-69486247D02*
X155085714Y-69724342D01*
X155085714Y-69724342D02*
X155038095Y-69819580D01*
X155038095Y-69819580D02*
X154990476Y-69867200D01*
X154990476Y-69867200D02*
X154895238Y-69914819D01*
X154895238Y-69914819D02*
X154657143Y-69914819D01*
X154657143Y-69914819D02*
X154561905Y-69867200D01*
X154561905Y-69867200D02*
X154514286Y-69819580D01*
X154293333Y-65414819D02*
X153960000Y-64938628D01*
X153721905Y-65414819D02*
X153721905Y-64414819D01*
X153721905Y-64414819D02*
X154102857Y-64414819D01*
X154102857Y-64414819D02*
X154198095Y-64462438D01*
X154198095Y-64462438D02*
X154245714Y-64510057D01*
X154245714Y-64510057D02*
X154293333Y-64605295D01*
X154293333Y-64605295D02*
X154293333Y-64748152D01*
X154293333Y-64748152D02*
X154245714Y-64843390D01*
X154245714Y-64843390D02*
X154198095Y-64891009D01*
X154198095Y-64891009D02*
X154102857Y-64938628D01*
X154102857Y-64938628D02*
X153721905Y-64938628D01*
X155150476Y-64748152D02*
X155150476Y-65414819D01*
X154912381Y-64367200D02*
X154674286Y-65081485D01*
X154674286Y-65081485D02*
X155293333Y-65081485D01*
X154213333Y-61414819D02*
X153880000Y-60938628D01*
X153641905Y-61414819D02*
X153641905Y-60414819D01*
X153641905Y-60414819D02*
X154022857Y-60414819D01*
X154022857Y-60414819D02*
X154118095Y-60462438D01*
X154118095Y-60462438D02*
X154165714Y-60510057D01*
X154165714Y-60510057D02*
X154213333Y-60605295D01*
X154213333Y-60605295D02*
X154213333Y-60748152D01*
X154213333Y-60748152D02*
X154165714Y-60843390D01*
X154165714Y-60843390D02*
X154118095Y-60891009D01*
X154118095Y-60891009D02*
X154022857Y-60938628D01*
X154022857Y-60938628D02*
X153641905Y-60938628D01*
X154546667Y-60414819D02*
X155165714Y-60414819D01*
X155165714Y-60414819D02*
X154832381Y-60795771D01*
X154832381Y-60795771D02*
X154975238Y-60795771D01*
X154975238Y-60795771D02*
X155070476Y-60843390D01*
X155070476Y-60843390D02*
X155118095Y-60891009D01*
X155118095Y-60891009D02*
X155165714Y-60986247D01*
X155165714Y-60986247D02*
X155165714Y-61224342D01*
X155165714Y-61224342D02*
X155118095Y-61319580D01*
X155118095Y-61319580D02*
X155070476Y-61367200D01*
X155070476Y-61367200D02*
X154975238Y-61414819D01*
X154975238Y-61414819D02*
X154689524Y-61414819D01*
X154689524Y-61414819D02*
X154594286Y-61367200D01*
X154594286Y-61367200D02*
X154546667Y-61319580D01*
X153373333Y-57414819D02*
X153040000Y-56938628D01*
X152801905Y-57414819D02*
X152801905Y-56414819D01*
X152801905Y-56414819D02*
X153182857Y-56414819D01*
X153182857Y-56414819D02*
X153278095Y-56462438D01*
X153278095Y-56462438D02*
X153325714Y-56510057D01*
X153325714Y-56510057D02*
X153373333Y-56605295D01*
X153373333Y-56605295D02*
X153373333Y-56748152D01*
X153373333Y-56748152D02*
X153325714Y-56843390D01*
X153325714Y-56843390D02*
X153278095Y-56891009D01*
X153278095Y-56891009D02*
X153182857Y-56938628D01*
X153182857Y-56938628D02*
X152801905Y-56938628D01*
X153754286Y-56510057D02*
X153801905Y-56462438D01*
X153801905Y-56462438D02*
X153897143Y-56414819D01*
X153897143Y-56414819D02*
X154135238Y-56414819D01*
X154135238Y-56414819D02*
X154230476Y-56462438D01*
X154230476Y-56462438D02*
X154278095Y-56510057D01*
X154278095Y-56510057D02*
X154325714Y-56605295D01*
X154325714Y-56605295D02*
X154325714Y-56700533D01*
X154325714Y-56700533D02*
X154278095Y-56843390D01*
X154278095Y-56843390D02*
X153706667Y-57414819D01*
X153706667Y-57414819D02*
X154325714Y-57414819D01*
X153373333Y-53414819D02*
X153040000Y-52938628D01*
X152801905Y-53414819D02*
X152801905Y-52414819D01*
X152801905Y-52414819D02*
X153182857Y-52414819D01*
X153182857Y-52414819D02*
X153278095Y-52462438D01*
X153278095Y-52462438D02*
X153325714Y-52510057D01*
X153325714Y-52510057D02*
X153373333Y-52605295D01*
X153373333Y-52605295D02*
X153373333Y-52748152D01*
X153373333Y-52748152D02*
X153325714Y-52843390D01*
X153325714Y-52843390D02*
X153278095Y-52891009D01*
X153278095Y-52891009D02*
X153182857Y-52938628D01*
X153182857Y-52938628D02*
X152801905Y-52938628D01*
X154325714Y-53414819D02*
X153754286Y-53414819D01*
X154040000Y-53414819D02*
X154040000Y-52414819D01*
X154040000Y-52414819D02*
X153944762Y-52557676D01*
X153944762Y-52557676D02*
X153849524Y-52652914D01*
X153849524Y-52652914D02*
X153754286Y-52700533D01*
X131504819Y-56833333D02*
X132219104Y-56833333D01*
X132219104Y-56833333D02*
X132361961Y-56880952D01*
X132361961Y-56880952D02*
X132457200Y-56976190D01*
X132457200Y-56976190D02*
X132504819Y-57119047D01*
X132504819Y-57119047D02*
X132504819Y-57214285D01*
X131504819Y-56452380D02*
X131504819Y-55785714D01*
X131504819Y-55785714D02*
X132504819Y-56214285D01*
X124624819Y-97793333D02*
X125339104Y-97793333D01*
X125339104Y-97793333D02*
X125481961Y-97840952D01*
X125481961Y-97840952D02*
X125577200Y-97936190D01*
X125577200Y-97936190D02*
X125624819Y-98079047D01*
X125624819Y-98079047D02*
X125624819Y-98174285D01*
X125624819Y-96793333D02*
X125624819Y-97364761D01*
X125624819Y-97079047D02*
X124624819Y-97079047D01*
X124624819Y-97079047D02*
X124767676Y-97174285D01*
X124767676Y-97174285D02*
X124862914Y-97269523D01*
X124862914Y-97269523D02*
X124910533Y-97364761D01*
X166026666Y-95934819D02*
X166026666Y-96649104D01*
X166026666Y-96649104D02*
X165979047Y-96791961D01*
X165979047Y-96791961D02*
X165883809Y-96887200D01*
X165883809Y-96887200D02*
X165740952Y-96934819D01*
X165740952Y-96934819D02*
X165645714Y-96934819D01*
X166407619Y-95934819D02*
X167026666Y-95934819D01*
X167026666Y-95934819D02*
X166693333Y-96315771D01*
X166693333Y-96315771D02*
X166836190Y-96315771D01*
X166836190Y-96315771D02*
X166931428Y-96363390D01*
X166931428Y-96363390D02*
X166979047Y-96411009D01*
X166979047Y-96411009D02*
X167026666Y-96506247D01*
X167026666Y-96506247D02*
X167026666Y-96744342D01*
X167026666Y-96744342D02*
X166979047Y-96839580D01*
X166979047Y-96839580D02*
X166931428Y-96887200D01*
X166931428Y-96887200D02*
X166836190Y-96934819D01*
X166836190Y-96934819D02*
X166550476Y-96934819D01*
X166550476Y-96934819D02*
X166455238Y-96887200D01*
X166455238Y-96887200D02*
X166407619Y-96839580D01*
X115480819Y-49533333D02*
X116195104Y-49533333D01*
X116195104Y-49533333D02*
X116337961Y-49580952D01*
X116337961Y-49580952D02*
X116433200Y-49676190D01*
X116433200Y-49676190D02*
X116480819Y-49819047D01*
X116480819Y-49819047D02*
X116480819Y-49914285D01*
X115576057Y-49104761D02*
X115528438Y-49057142D01*
X115528438Y-49057142D02*
X115480819Y-48961904D01*
X115480819Y-48961904D02*
X115480819Y-48723809D01*
X115480819Y-48723809D02*
X115528438Y-48628571D01*
X115528438Y-48628571D02*
X115576057Y-48580952D01*
X115576057Y-48580952D02*
X115671295Y-48533333D01*
X115671295Y-48533333D02*
X115766533Y-48533333D01*
X115766533Y-48533333D02*
X115909390Y-48580952D01*
X115909390Y-48580952D02*
X116480819Y-49152380D01*
X116480819Y-49152380D02*
X116480819Y-48533333D01*
X164386666Y-51484819D02*
X164386666Y-52199104D01*
X164386666Y-52199104D02*
X164339047Y-52341961D01*
X164339047Y-52341961D02*
X164243809Y-52437200D01*
X164243809Y-52437200D02*
X164100952Y-52484819D01*
X164100952Y-52484819D02*
X164005714Y-52484819D01*
X165291428Y-51818152D02*
X165291428Y-52484819D01*
X165053333Y-51437200D02*
X164815238Y-52151485D01*
X164815238Y-52151485D02*
X165434285Y-52151485D01*
X136416667Y-81657200D02*
X136559524Y-81704819D01*
X136559524Y-81704819D02*
X136797619Y-81704819D01*
X136797619Y-81704819D02*
X136892857Y-81657200D01*
X136892857Y-81657200D02*
X136940476Y-81609580D01*
X136940476Y-81609580D02*
X136988095Y-81514342D01*
X136988095Y-81514342D02*
X136988095Y-81419104D01*
X136988095Y-81419104D02*
X136940476Y-81323866D01*
X136940476Y-81323866D02*
X136892857Y-81276247D01*
X136892857Y-81276247D02*
X136797619Y-81228628D01*
X136797619Y-81228628D02*
X136607143Y-81181009D01*
X136607143Y-81181009D02*
X136511905Y-81133390D01*
X136511905Y-81133390D02*
X136464286Y-81085771D01*
X136464286Y-81085771D02*
X136416667Y-80990533D01*
X136416667Y-80990533D02*
X136416667Y-80895295D01*
X136416667Y-80895295D02*
X136464286Y-80800057D01*
X136464286Y-80800057D02*
X136511905Y-80752438D01*
X136511905Y-80752438D02*
X136607143Y-80704819D01*
X136607143Y-80704819D02*
X136845238Y-80704819D01*
X136845238Y-80704819D02*
X136988095Y-80752438D01*
X137321429Y-80704819D02*
X137559524Y-81704819D01*
X137559524Y-81704819D02*
X137750000Y-80990533D01*
X137750000Y-80990533D02*
X137940476Y-81704819D01*
X137940476Y-81704819D02*
X138178572Y-80704819D01*
X138988095Y-81038152D02*
X138988095Y-81704819D01*
X138750000Y-80657200D02*
X138511905Y-81371485D01*
X138511905Y-81371485D02*
X139130952Y-81371485D01*
X166831905Y-62404819D02*
X166831905Y-61404819D01*
X166831905Y-61404819D02*
X167070000Y-61404819D01*
X167070000Y-61404819D02*
X167212857Y-61452438D01*
X167212857Y-61452438D02*
X167308095Y-61547676D01*
X167308095Y-61547676D02*
X167355714Y-61642914D01*
X167355714Y-61642914D02*
X167403333Y-61833390D01*
X167403333Y-61833390D02*
X167403333Y-61976247D01*
X167403333Y-61976247D02*
X167355714Y-62166723D01*
X167355714Y-62166723D02*
X167308095Y-62261961D01*
X167308095Y-62261961D02*
X167212857Y-62357200D01*
X167212857Y-62357200D02*
X167070000Y-62404819D01*
X167070000Y-62404819D02*
X166831905Y-62404819D01*
X168355714Y-62404819D02*
X167784286Y-62404819D01*
X168070000Y-62404819D02*
X168070000Y-61404819D01*
X168070000Y-61404819D02*
X167974762Y-61547676D01*
X167974762Y-61547676D02*
X167879524Y-61642914D01*
X167879524Y-61642914D02*
X167784286Y-61690533D01*
X136416667Y-90157200D02*
X136559524Y-90204819D01*
X136559524Y-90204819D02*
X136797619Y-90204819D01*
X136797619Y-90204819D02*
X136892857Y-90157200D01*
X136892857Y-90157200D02*
X136940476Y-90109580D01*
X136940476Y-90109580D02*
X136988095Y-90014342D01*
X136988095Y-90014342D02*
X136988095Y-89919104D01*
X136988095Y-89919104D02*
X136940476Y-89823866D01*
X136940476Y-89823866D02*
X136892857Y-89776247D01*
X136892857Y-89776247D02*
X136797619Y-89728628D01*
X136797619Y-89728628D02*
X136607143Y-89681009D01*
X136607143Y-89681009D02*
X136511905Y-89633390D01*
X136511905Y-89633390D02*
X136464286Y-89585771D01*
X136464286Y-89585771D02*
X136416667Y-89490533D01*
X136416667Y-89490533D02*
X136416667Y-89395295D01*
X136416667Y-89395295D02*
X136464286Y-89300057D01*
X136464286Y-89300057D02*
X136511905Y-89252438D01*
X136511905Y-89252438D02*
X136607143Y-89204819D01*
X136607143Y-89204819D02*
X136845238Y-89204819D01*
X136845238Y-89204819D02*
X136988095Y-89252438D01*
X137321429Y-89204819D02*
X137559524Y-90204819D01*
X137559524Y-90204819D02*
X137750000Y-89490533D01*
X137750000Y-89490533D02*
X137940476Y-90204819D01*
X137940476Y-90204819D02*
X138178572Y-89204819D01*
X139035714Y-89204819D02*
X138559524Y-89204819D01*
X138559524Y-89204819D02*
X138511905Y-89681009D01*
X138511905Y-89681009D02*
X138559524Y-89633390D01*
X138559524Y-89633390D02*
X138654762Y-89585771D01*
X138654762Y-89585771D02*
X138892857Y-89585771D01*
X138892857Y-89585771D02*
X138988095Y-89633390D01*
X138988095Y-89633390D02*
X139035714Y-89681009D01*
X139035714Y-89681009D02*
X139083333Y-89776247D01*
X139083333Y-89776247D02*
X139083333Y-90014342D01*
X139083333Y-90014342D02*
X139035714Y-90109580D01*
X139035714Y-90109580D02*
X138988095Y-90157200D01*
X138988095Y-90157200D02*
X138892857Y-90204819D01*
X138892857Y-90204819D02*
X138654762Y-90204819D01*
X138654762Y-90204819D02*
X138559524Y-90157200D01*
X138559524Y-90157200D02*
X138511905Y-90109580D01*
X136416667Y-64657200D02*
X136559524Y-64704819D01*
X136559524Y-64704819D02*
X136797619Y-64704819D01*
X136797619Y-64704819D02*
X136892857Y-64657200D01*
X136892857Y-64657200D02*
X136940476Y-64609580D01*
X136940476Y-64609580D02*
X136988095Y-64514342D01*
X136988095Y-64514342D02*
X136988095Y-64419104D01*
X136988095Y-64419104D02*
X136940476Y-64323866D01*
X136940476Y-64323866D02*
X136892857Y-64276247D01*
X136892857Y-64276247D02*
X136797619Y-64228628D01*
X136797619Y-64228628D02*
X136607143Y-64181009D01*
X136607143Y-64181009D02*
X136511905Y-64133390D01*
X136511905Y-64133390D02*
X136464286Y-64085771D01*
X136464286Y-64085771D02*
X136416667Y-63990533D01*
X136416667Y-63990533D02*
X136416667Y-63895295D01*
X136416667Y-63895295D02*
X136464286Y-63800057D01*
X136464286Y-63800057D02*
X136511905Y-63752438D01*
X136511905Y-63752438D02*
X136607143Y-63704819D01*
X136607143Y-63704819D02*
X136845238Y-63704819D01*
X136845238Y-63704819D02*
X136988095Y-63752438D01*
X137321429Y-63704819D02*
X137559524Y-64704819D01*
X137559524Y-64704819D02*
X137750000Y-63990533D01*
X137750000Y-63990533D02*
X137940476Y-64704819D01*
X137940476Y-64704819D02*
X138178572Y-63704819D01*
X138511905Y-63800057D02*
X138559524Y-63752438D01*
X138559524Y-63752438D02*
X138654762Y-63704819D01*
X138654762Y-63704819D02*
X138892857Y-63704819D01*
X138892857Y-63704819D02*
X138988095Y-63752438D01*
X138988095Y-63752438D02*
X139035714Y-63800057D01*
X139035714Y-63800057D02*
X139083333Y-63895295D01*
X139083333Y-63895295D02*
X139083333Y-63990533D01*
X139083333Y-63990533D02*
X139035714Y-64133390D01*
X139035714Y-64133390D02*
X138464286Y-64704819D01*
X138464286Y-64704819D02*
X139083333Y-64704819D01*
X136416667Y-73157200D02*
X136559524Y-73204819D01*
X136559524Y-73204819D02*
X136797619Y-73204819D01*
X136797619Y-73204819D02*
X136892857Y-73157200D01*
X136892857Y-73157200D02*
X136940476Y-73109580D01*
X136940476Y-73109580D02*
X136988095Y-73014342D01*
X136988095Y-73014342D02*
X136988095Y-72919104D01*
X136988095Y-72919104D02*
X136940476Y-72823866D01*
X136940476Y-72823866D02*
X136892857Y-72776247D01*
X136892857Y-72776247D02*
X136797619Y-72728628D01*
X136797619Y-72728628D02*
X136607143Y-72681009D01*
X136607143Y-72681009D02*
X136511905Y-72633390D01*
X136511905Y-72633390D02*
X136464286Y-72585771D01*
X136464286Y-72585771D02*
X136416667Y-72490533D01*
X136416667Y-72490533D02*
X136416667Y-72395295D01*
X136416667Y-72395295D02*
X136464286Y-72300057D01*
X136464286Y-72300057D02*
X136511905Y-72252438D01*
X136511905Y-72252438D02*
X136607143Y-72204819D01*
X136607143Y-72204819D02*
X136845238Y-72204819D01*
X136845238Y-72204819D02*
X136988095Y-72252438D01*
X137321429Y-72204819D02*
X137559524Y-73204819D01*
X137559524Y-73204819D02*
X137750000Y-72490533D01*
X137750000Y-72490533D02*
X137940476Y-73204819D01*
X137940476Y-73204819D02*
X138178572Y-72204819D01*
X138464286Y-72204819D02*
X139083333Y-72204819D01*
X139083333Y-72204819D02*
X138750000Y-72585771D01*
X138750000Y-72585771D02*
X138892857Y-72585771D01*
X138892857Y-72585771D02*
X138988095Y-72633390D01*
X138988095Y-72633390D02*
X139035714Y-72681009D01*
X139035714Y-72681009D02*
X139083333Y-72776247D01*
X139083333Y-72776247D02*
X139083333Y-73014342D01*
X139083333Y-73014342D02*
X139035714Y-73109580D01*
X139035714Y-73109580D02*
X138988095Y-73157200D01*
X138988095Y-73157200D02*
X138892857Y-73204819D01*
X138892857Y-73204819D02*
X138607143Y-73204819D01*
X138607143Y-73204819D02*
X138511905Y-73157200D01*
X138511905Y-73157200D02*
X138464286Y-73109580D01*
X108234819Y-69343333D02*
X108949104Y-69343333D01*
X108949104Y-69343333D02*
X109091961Y-69390952D01*
X109091961Y-69390952D02*
X109187200Y-69486190D01*
X109187200Y-69486190D02*
X109234819Y-69629047D01*
X109234819Y-69629047D02*
X109234819Y-69724285D01*
X108234819Y-68438571D02*
X108234819Y-68629047D01*
X108234819Y-68629047D02*
X108282438Y-68724285D01*
X108282438Y-68724285D02*
X108330057Y-68771904D01*
X108330057Y-68771904D02*
X108472914Y-68867142D01*
X108472914Y-68867142D02*
X108663390Y-68914761D01*
X108663390Y-68914761D02*
X109044342Y-68914761D01*
X109044342Y-68914761D02*
X109139580Y-68867142D01*
X109139580Y-68867142D02*
X109187200Y-68819523D01*
X109187200Y-68819523D02*
X109234819Y-68724285D01*
X109234819Y-68724285D02*
X109234819Y-68533809D01*
X109234819Y-68533809D02*
X109187200Y-68438571D01*
X109187200Y-68438571D02*
X109139580Y-68390952D01*
X109139580Y-68390952D02*
X109044342Y-68343333D01*
X109044342Y-68343333D02*
X108806247Y-68343333D01*
X108806247Y-68343333D02*
X108711009Y-68390952D01*
X108711009Y-68390952D02*
X108663390Y-68438571D01*
X108663390Y-68438571D02*
X108615771Y-68533809D01*
X108615771Y-68533809D02*
X108615771Y-68724285D01*
X108615771Y-68724285D02*
X108663390Y-68819523D01*
X108663390Y-68819523D02*
X108711009Y-68867142D01*
X108711009Y-68867142D02*
X108806247Y-68914761D01*
X136416667Y-56157200D02*
X136559524Y-56204819D01*
X136559524Y-56204819D02*
X136797619Y-56204819D01*
X136797619Y-56204819D02*
X136892857Y-56157200D01*
X136892857Y-56157200D02*
X136940476Y-56109580D01*
X136940476Y-56109580D02*
X136988095Y-56014342D01*
X136988095Y-56014342D02*
X136988095Y-55919104D01*
X136988095Y-55919104D02*
X136940476Y-55823866D01*
X136940476Y-55823866D02*
X136892857Y-55776247D01*
X136892857Y-55776247D02*
X136797619Y-55728628D01*
X136797619Y-55728628D02*
X136607143Y-55681009D01*
X136607143Y-55681009D02*
X136511905Y-55633390D01*
X136511905Y-55633390D02*
X136464286Y-55585771D01*
X136464286Y-55585771D02*
X136416667Y-55490533D01*
X136416667Y-55490533D02*
X136416667Y-55395295D01*
X136416667Y-55395295D02*
X136464286Y-55300057D01*
X136464286Y-55300057D02*
X136511905Y-55252438D01*
X136511905Y-55252438D02*
X136607143Y-55204819D01*
X136607143Y-55204819D02*
X136845238Y-55204819D01*
X136845238Y-55204819D02*
X136988095Y-55252438D01*
X137321429Y-55204819D02*
X137559524Y-56204819D01*
X137559524Y-56204819D02*
X137750000Y-55490533D01*
X137750000Y-55490533D02*
X137940476Y-56204819D01*
X137940476Y-56204819D02*
X138178572Y-55204819D01*
X139083333Y-56204819D02*
X138511905Y-56204819D01*
X138797619Y-56204819D02*
X138797619Y-55204819D01*
X138797619Y-55204819D02*
X138702381Y-55347676D01*
X138702381Y-55347676D02*
X138607143Y-55442914D01*
X138607143Y-55442914D02*
X138511905Y-55490533D01*
X153954819Y-90040238D02*
X153478628Y-90373571D01*
X153954819Y-90611666D02*
X152954819Y-90611666D01*
X152954819Y-90611666D02*
X152954819Y-90230714D01*
X152954819Y-90230714D02*
X153002438Y-90135476D01*
X153002438Y-90135476D02*
X153050057Y-90087857D01*
X153050057Y-90087857D02*
X153145295Y-90040238D01*
X153145295Y-90040238D02*
X153288152Y-90040238D01*
X153288152Y-90040238D02*
X153383390Y-90087857D01*
X153383390Y-90087857D02*
X153431009Y-90135476D01*
X153431009Y-90135476D02*
X153478628Y-90230714D01*
X153478628Y-90230714D02*
X153478628Y-90611666D01*
X152954819Y-89754523D02*
X153954819Y-89421190D01*
X153954819Y-89421190D02*
X152954819Y-89087857D01*
X153954819Y-88230714D02*
X153954819Y-88802142D01*
X153954819Y-88516428D02*
X152954819Y-88516428D01*
X152954819Y-88516428D02*
X153097676Y-88611666D01*
X153097676Y-88611666D02*
X153192914Y-88706904D01*
X153192914Y-88706904D02*
X153240533Y-88802142D01*
X104314819Y-62573333D02*
X105029104Y-62573333D01*
X105029104Y-62573333D02*
X105171961Y-62620952D01*
X105171961Y-62620952D02*
X105267200Y-62716190D01*
X105267200Y-62716190D02*
X105314819Y-62859047D01*
X105314819Y-62859047D02*
X105314819Y-62954285D01*
X104314819Y-61620952D02*
X104314819Y-62097142D01*
X104314819Y-62097142D02*
X104791009Y-62144761D01*
X104791009Y-62144761D02*
X104743390Y-62097142D01*
X104743390Y-62097142D02*
X104695771Y-62001904D01*
X104695771Y-62001904D02*
X104695771Y-61763809D01*
X104695771Y-61763809D02*
X104743390Y-61668571D01*
X104743390Y-61668571D02*
X104791009Y-61620952D01*
X104791009Y-61620952D02*
X104886247Y-61573333D01*
X104886247Y-61573333D02*
X105124342Y-61573333D01*
X105124342Y-61573333D02*
X105219580Y-61620952D01*
X105219580Y-61620952D02*
X105267200Y-61668571D01*
X105267200Y-61668571D02*
X105314819Y-61763809D01*
X105314819Y-61763809D02*
X105314819Y-62001904D01*
X105314819Y-62001904D02*
X105267200Y-62097142D01*
X105267200Y-62097142D02*
X105219580Y-62144761D01*
D12*
%TO.C,R6*%
X149920000Y-73460000D02*
X150690000Y-73460000D01*
X150690000Y-72090000D02*
X150690000Y-74830000D01*
X150690000Y-74830000D02*
X157230000Y-74830000D01*
X157230000Y-72090000D02*
X150690000Y-72090000D01*
X157230000Y-74830000D02*
X157230000Y-72090000D01*
X158000000Y-73460000D02*
X157230000Y-73460000D01*
%TO.C,R5*%
X157920000Y-69460000D02*
X157150000Y-69460000D01*
X157150000Y-70830000D02*
X157150000Y-68090000D01*
X157150000Y-68090000D02*
X150610000Y-68090000D01*
X150610000Y-70830000D02*
X157150000Y-70830000D01*
X150610000Y-68090000D02*
X150610000Y-70830000D01*
X149840000Y-69460000D02*
X150610000Y-69460000D01*
%TO.C,R4*%
X150000000Y-64960000D02*
X150770000Y-64960000D01*
X150770000Y-63590000D02*
X150770000Y-66330000D01*
X150770000Y-66330000D02*
X157310000Y-66330000D01*
X157310000Y-63590000D02*
X150770000Y-63590000D01*
X157310000Y-66330000D02*
X157310000Y-63590000D01*
X158080000Y-64960000D02*
X157310000Y-64960000D01*
%TO.C,R3*%
X149920000Y-60960000D02*
X150690000Y-60960000D01*
X150690000Y-59590000D02*
X150690000Y-62330000D01*
X150690000Y-62330000D02*
X157230000Y-62330000D01*
X157230000Y-59590000D02*
X150690000Y-59590000D01*
X157230000Y-62330000D02*
X157230000Y-59590000D01*
X158000000Y-60960000D02*
X157230000Y-60960000D01*
%TO.C,R2*%
X158000000Y-56960000D02*
X157230000Y-56960000D01*
X157230000Y-58330000D02*
X157230000Y-55590000D01*
X157230000Y-55590000D02*
X150690000Y-55590000D01*
X150690000Y-58330000D02*
X157230000Y-58330000D01*
X150690000Y-55590000D02*
X150690000Y-58330000D01*
X149920000Y-56960000D02*
X150690000Y-56960000D01*
%TO.C,R1*%
X149920000Y-52960000D02*
X150690000Y-52960000D01*
X150690000Y-51590000D02*
X150690000Y-54330000D01*
X150690000Y-54330000D02*
X157230000Y-54330000D01*
X157230000Y-51590000D02*
X150690000Y-51590000D01*
X157230000Y-54330000D02*
X157230000Y-51590000D01*
X158000000Y-52960000D02*
X157230000Y-52960000D01*
%TO.C,J7*%
X131250000Y-51150000D02*
X130000000Y-51150000D01*
X130960000Y-51440000D02*
X124990000Y-51440000D01*
X124990000Y-51440000D02*
X124990000Y-61560000D01*
X130950000Y-51450000D02*
X130200000Y-51450000D01*
X130200000Y-51450000D02*
X130200000Y-53250000D01*
X128700000Y-51450000D02*
X128700000Y-52200000D01*
X128700000Y-52200000D02*
X125750000Y-52200000D01*
X125750000Y-52200000D02*
X125750000Y-56500000D01*
X131250000Y-52400000D02*
X131250000Y-51150000D01*
X130950000Y-53250000D02*
X130950000Y-51450000D01*
X130200000Y-53250000D02*
X130950000Y-53250000D01*
X130950000Y-54750000D02*
X130200000Y-54750000D01*
X130200000Y-54750000D02*
X130200000Y-58250000D01*
X130950000Y-58250000D02*
X130950000Y-54750000D01*
X130200000Y-58250000D02*
X130950000Y-58250000D01*
X130950000Y-59750000D02*
X130200000Y-59750000D01*
X130200000Y-59750000D02*
X130200000Y-61550000D01*
X128700000Y-60800000D02*
X125750000Y-60800000D01*
X125750000Y-60800000D02*
X125750000Y-56500000D01*
X130950000Y-61550000D02*
X130950000Y-59750000D01*
X130200000Y-61550000D02*
X130950000Y-61550000D01*
X128700000Y-61550000D02*
X128700000Y-60800000D01*
X130960000Y-61560000D02*
X130960000Y-51440000D01*
X124990000Y-61560000D02*
X130960000Y-61560000D01*
%TO.C,J1*%
X126610000Y-96130000D02*
X127940000Y-96130000D01*
X126610000Y-97460000D02*
X126610000Y-96130000D01*
X129210000Y-96130000D02*
X147050000Y-96130000D01*
X129210000Y-98790000D02*
X129210000Y-96130000D01*
X129210000Y-98790000D02*
X147050000Y-98790000D01*
X147050000Y-98790000D02*
X147050000Y-96130000D01*
%TO.C,J3*%
X149470000Y-96130000D02*
X150800000Y-96130000D01*
X149470000Y-97460000D02*
X149470000Y-96130000D01*
X152070000Y-96130000D02*
X164830000Y-96130000D01*
X152070000Y-98790000D02*
X152070000Y-96130000D01*
X152070000Y-98790000D02*
X164830000Y-98790000D01*
X164830000Y-98790000D02*
X164830000Y-96130000D01*
%TO.C,J2*%
X117466000Y-47870000D02*
X118796000Y-47870000D01*
X117466000Y-49200000D02*
X117466000Y-47870000D01*
X120066000Y-47870000D02*
X142986000Y-47870000D01*
X120066000Y-50530000D02*
X120066000Y-47870000D01*
X120066000Y-50530000D02*
X142986000Y-50530000D01*
X142986000Y-50530000D02*
X142986000Y-47870000D01*
%TO.C,J4*%
X144390000Y-47870000D02*
X145720000Y-47870000D01*
X144390000Y-49200000D02*
X144390000Y-47870000D01*
X146990000Y-47870000D02*
X164830000Y-47870000D01*
X146990000Y-50530000D02*
X146990000Y-47870000D01*
X146990000Y-50530000D02*
X164830000Y-50530000D01*
X164830000Y-50530000D02*
X164830000Y-47870000D01*
%TO.C,SW4*%
X141250000Y-82000000D02*
X141250000Y-80500000D01*
X140000000Y-78000000D02*
X135500000Y-78000000D01*
X135500000Y-84500000D02*
X140000000Y-84500000D01*
X134250000Y-80500000D02*
X134250000Y-82000000D01*
%TO.C,D1*%
X162955000Y-67290000D02*
X166045000Y-67290000D01*
X162955170Y-67290000D02*
G75*
G02*
X164500462Y-61740000I1544830J2560000D01*
G01*
X164499538Y-61740000D02*
G75*
G02*
X166044830Y-67290000I462J-2990000D01*
G01*
X167000000Y-64730000D02*
G75*
G02*
X162000000Y-64730000I-2500000J0D01*
G01*
X162000000Y-64730000D02*
G75*
G02*
X167000000Y-64730000I2500000J0D01*
G01*
%TO.C,SW5*%
X141250000Y-90500000D02*
X141250000Y-89000000D01*
X140000000Y-86500000D02*
X135500000Y-86500000D01*
X135500000Y-93000000D02*
X140000000Y-93000000D01*
X134250000Y-89000000D02*
X134250000Y-90500000D01*
%TO.C,SW2*%
X141250000Y-65000000D02*
X141250000Y-63500000D01*
X140000000Y-61000000D02*
X135500000Y-61000000D01*
X135500000Y-67500000D02*
X140000000Y-67500000D01*
X134250000Y-63500000D02*
X134250000Y-65000000D01*
%TO.C,SW3*%
X141250000Y-73500000D02*
X141250000Y-72000000D01*
X140000000Y-69500000D02*
X135500000Y-69500000D01*
X135500000Y-76000000D02*
X140000000Y-76000000D01*
X134250000Y-72000000D02*
X134250000Y-73500000D01*
%TO.C,J6*%
X112820000Y-67680000D02*
X120500000Y-67680000D01*
X110220000Y-67680000D02*
X111550000Y-67680000D01*
X110220000Y-69010000D02*
X110220000Y-67680000D01*
X120500000Y-70340000D02*
X120500000Y-67680000D01*
X112820000Y-70340000D02*
X112820000Y-67680000D01*
X112820000Y-70340000D02*
X120500000Y-70340000D01*
%TO.C,SW1*%
X141250000Y-56500000D02*
X141250000Y-55000000D01*
X140000000Y-52500000D02*
X135500000Y-52500000D01*
X135500000Y-59000000D02*
X140000000Y-59000000D01*
X134250000Y-55000000D02*
X134250000Y-56500000D01*
%TO.C,RV1*%
X158385000Y-94330000D02*
X148615000Y-94330000D01*
X148615000Y-84560000D02*
X148615000Y-94330000D01*
X158385000Y-84560000D02*
X158385000Y-94330000D01*
X158385000Y-84560000D02*
X148615000Y-84560000D01*
%TO.C,J5*%
X105900000Y-66510000D02*
X123740000Y-66510000D01*
X105900000Y-66510000D02*
X105900000Y-63850000D01*
X123740000Y-66510000D02*
X123740000Y-63850000D01*
X103300000Y-65180000D02*
X103300000Y-63850000D01*
X103300000Y-63850000D02*
X104630000Y-63850000D01*
X105900000Y-63850000D02*
X123740000Y-63850000D01*
%TD*%
M02*
