M48
; DRILL file {KiCad 8.0.8} date 2025-03-11T12:26:53-0600
; FORMAT={-:-/ absolute / inch / decimal}
; #@! TF.CreationDate,2025-03-11T12:26:53-06:00
; #@! TF.GenerationSoftware,Kicad,Pcbnew,8.0.8
; #@! TF.FileFunction,Plated,1,2,PTH
FMAT,2
INCH
; #@! TA.AperFunction,Plated,PTH,ViaDrill
T1C0.0157
; #@! TA.AperFunction,Plated,PTH,ComponentDrill
T2C0.0354
; #@! TA.AperFunction,Plated,PTH,ComponentDrill
T3C0.0394
; #@! TA.AperFunction,Plated,PTH,ComponentDrill
T4C0.0472
%
G90
G05
T1
X4.5669Y-2.6181
X4.8228Y-2.6181
T2
X5.6191Y-2.185
X5.6191Y-2.5
X5.7191Y-2.185
X5.7191Y-2.5
T3
X4.4803Y-2.874
X4.5803Y-2.874
X4.677Y-1.937
X4.6803Y-2.874
X4.777Y-1.937
X4.7803Y-2.874
X4.8606Y-2.7165
X4.877Y-1.937
X4.8803Y-2.874
X4.9606Y-2.7165
X4.977Y-1.937
X4.9803Y-2.874
X5.037Y-3.837
X5.0606Y-2.7165
X5.077Y-1.937
X5.0803Y-2.874
X5.137Y-3.837
X5.1606Y-2.7165
X5.177Y-1.937
X5.1803Y-2.874
X5.237Y-3.837
X5.2606Y-2.7165
X5.277Y-1.937
X5.2803Y-2.874
X5.337Y-3.837
X5.3606Y-2.7165
X5.377Y-1.937
X5.437Y-3.837
X5.4606Y-2.7165
X5.477Y-1.937
X5.5055Y-3.6614
X5.537Y-3.837
X5.577Y-1.937
X5.6055Y-3.6614
X5.637Y-3.837
X5.7055Y-3.6614
X5.737Y-1.937
X5.737Y-3.837
X5.8055Y-3.6614
X5.837Y-1.937
X5.9055Y-3.6614
X5.937Y-1.937
X5.937Y-3.837
X6.0055Y-3.6614
X6.037Y-1.937
X6.037Y-3.837
X6.137Y-1.937
X6.137Y-3.837
X6.237Y-1.937
X6.237Y-3.837
X6.337Y-1.937
X6.337Y-3.837
X6.437Y-1.937
X6.437Y-3.837
T4
X5.8858Y-2.1063
X5.8858Y-2.7063
X6.063Y-2.1063
X6.063Y-2.7063
X6.1811Y-3.0661
X6.1811Y-3.6661
X6.3583Y-3.0661
X6.3583Y-3.6661
M30
